<svg width="24" height="24" viewBox="0 0 24 24" fill="none" xmlns="http://www.w3.org/2000/svg">
<g id="arrow_outward_FILL0_wght300_GRAD0_opsz48 3">
<g id="Vector">
<path d="M16.9013 19.0001H6.0979C5.54151 19.0001 5.0079 18.779 4.61446 18.3856C4.22103 17.9921 4 17.4585 4 16.902V6.09808C4 5.54165 4.22103 5.00801 4.61446 4.61456C5.0079 4.2211 5.54151 4.00006 6.0979 4.00006H16.9013C17.4577 4.00006 17.9913 4.2211 18.3847 4.61456C18.7782 5.00801 18.9992 5.54165 18.9992 6.09808V16.902C18.9992 17.4585 18.7782 17.9921 18.3847 18.3856C17.9913 18.779 17.4577 19.0001 16.9013 19.0001ZM6.0979 4.83927C5.76407 4.83927 5.4439 4.97189 5.20784 5.20797C4.97178 5.44404 4.83916 5.76422 4.83916 6.09808V16.902C4.83916 17.2359 4.97178 17.5561 5.20784 17.7922C5.4439 18.0282 5.76407 18.1609 6.0979 18.1609H16.9013C17.2351 18.1609 17.5553 18.0282 17.7913 17.7922C18.0274 17.5561 18.16 17.2359 18.16 16.902V6.09808C18.16 5.76422 18.0274 5.44404 17.7913 5.20797C17.5553 4.97189 17.2351 4.83927 16.9013 4.83927H6.0979Z" fill="white"/>
<path d="M11.4996 15.3554C10.7371 15.3546 9.99197 15.1277 9.3584 14.7034C8.72482 14.2791 8.23125 13.6766 7.94007 12.9718C7.64889 12.2671 7.57318 11.4918 7.7225 10.744C7.87183 9.99628 8.23948 9.30957 8.779 8.77073C9.31851 8.23189 10.0057 7.86511 10.7536 7.71675C11.5015 7.56839 12.2766 7.64512 12.9809 7.93724C13.6853 8.22935 14.2872 8.72374 14.7106 9.3579C15.134 9.99206 15.3599 10.7375 15.3597 11.5001C15.3584 12.523 14.9511 13.5036 14.2273 14.2265C13.5036 14.9494 12.5225 15.3554 11.4996 15.3554ZM11.4996 8.47891C10.9033 8.47974 10.3206 8.65728 9.82513 8.98911C9.32967 9.32094 8.94365 9.79216 8.71584 10.3433C8.48803 10.8944 8.42864 11.5006 8.54517 12.0855C8.66171 12.6703 8.94895 13.2075 9.3706 13.6292C9.79225 14.0508 10.3294 14.3381 10.9142 14.4546C11.499 14.5712 12.1052 14.5118 12.6563 14.284C13.2074 14.0561 13.6786 13.6701 14.0104 13.1746C14.3422 12.6791 14.5197 12.0964 14.5206 11.5001C14.5206 10.6988 14.2023 9.93036 13.6357 9.36379C13.0692 8.79721 12.3008 8.47891 11.4996 8.47891Z" fill="white"/>
<path d="M15.8632 8.06351C16.3614 8.06351 16.7653 7.6596 16.7653 7.16136C16.7653 6.66311 16.3614 6.25921 15.8632 6.25921C15.365 6.25921 14.9611 6.66311 14.9611 7.16136C14.9611 7.6596 15.365 8.06351 15.8632 8.06351Z" fill="white"/>
</g>
</g>
</svg>
