<svg width="24" height="24" viewBox="0 0 24 24" fill="none" xmlns="http://www.w3.org/2000/svg">
<g id="Pencil 3">
<path id="Shape" fill-rule="evenodd" clip-rule="evenodd" d="M17.4957 4.05499C17.3879 3.94725 17.2418 3.88672 17.0894 3.88672C16.9371 3.88672 16.7909 3.94725 16.6832 4.05499L7.59578 13.1429C7.4752 13.2635 7.37874 13.406 7.31157 13.5627L5.53133 17.7168C5.43879 17.9327 5.48704 18.1832 5.65315 18.3493C5.81926 18.5154 6.06976 18.5637 6.28567 18.4711L10.4396 16.6908C10.5963 16.6236 10.7388 16.5272 10.8594 16.4066L19.9468 7.31867C20.1711 7.09432 20.1711 6.73059 19.9468 6.50625L17.4957 4.05499ZM8.40824 13.9553L17.0894 5.27366L18.7281 6.91246L10.0469 15.5941C10.0297 15.6114 10.0093 15.6252 9.98694 15.6347L8.30702 16.3548C8.2945 16.1896 8.22507 16.0279 8.09875 15.9016C7.97315 15.776 7.81261 15.7067 7.64842 15.6936L8.36764 14.0153C8.37724 13.9929 8.39102 13.9725 8.40824 13.9553Z" fill="#898989"/>
</g>
</svg>
