<svg width="24" height="24" viewBox="0 0 24 24" fill="none" xmlns="http://www.w3.org/2000/svg">
<path fill-rule="evenodd" clip-rule="evenodd" d="M13.0001 3.5C13.0001 3.65811 12.9634 3.80765 12.8981 3.94056C16.1184 4.37864 18.6001 7.13949 18.6001 10.48V16.4C18.6001 17.6813 18.643 18.8629 19.7824 19.4706C20.0254 19.6002 20.1489 19.8784 20.0822 20.1455C20.0154 20.4126 19.7754 20.6 19.5001 20.6H12.9169C12.9704 20.7225 13.0001 20.8578 13.0001 21C13.0001 21.5523 12.5524 22 12.0001 22C11.4478 22 11.0001 21.5523 11.0001 21C11.0001 20.8578 11.0298 20.7225 11.0833 20.6H4.50008C4.22476 20.6 3.98477 20.4126 3.918 20.1455C3.85122 19.8784 3.9748 19.6002 4.21772 19.4706C5.35716 18.8629 5.40008 17.6813 5.40008 16.4V10.48C5.40008 7.13949 7.88181 4.37863 11.1021 3.94056C11.0368 3.80764 11.0001 3.65811 11.0001 3.5C11.0001 2.94772 11.4478 2.5 12.0001 2.5C12.5524 2.5 13.0001 2.94772 13.0001 3.5ZM12.0001 5.07999C9.01775 5.07999 6.60008 7.49765 6.60008 10.48V16.4L6.60012 16.4757C6.60076 17.2711 6.60169 18.4354 6.00544 19.4H17.9947C17.3985 18.4354 17.3994 17.2711 17.4 16.4757L17.4001 16.4V10.48C17.4001 7.49765 14.9824 5.07999 12.0001 5.07999Z" fill="#C3C3CC"/>
</svg>
