<svg width="120" height="34" viewBox="0 0 120 34" fill="none" xmlns="http://www.w3.org/2000/svg">
<path d="M5.02163 5.6H18.7816L18.1416 10.08H9.02163L8.34963 14.72H16.9256L16.3496 18.88H7.77363L7.13363 23.52H16.2536L15.6136 28H1.85363L5.02163 5.6ZM30.5194 22.816H24.7914L22.9674 28H17.8474L24.8234 9.76H22.4874L23.0954 5.6H33.4634L36.0874 28H31.0314L30.5194 22.816ZM30.1354 18.656L29.8154 15.296V10.304C29.8154 10.1973 29.7834 10.112 29.7194 10.048C29.6767 9.984 29.6127 9.952 29.5274 9.952C29.3994 9.952 29.3034 10.0373 29.2394 10.208L26.2634 18.656H30.1354ZM44.7066 28.32C43.256 28.32 41.9973 28.16 40.9306 27.84C39.8853 27.4987 38.8506 26.976 37.8266 26.272L39.2986 22.24C40.3013 22.8587 41.2186 23.296 42.0506 23.552C42.8826 23.7867 43.8426 23.904 44.9306 23.904C46.0186 23.904 46.904 23.6267 47.5866 23.072C48.2693 22.5173 48.6106 21.824 48.6106 20.992C48.6106 19.9467 47.9813 19.2533 46.7226 18.912L45.7626 18.656C44.12 18.2293 42.776 17.4827 41.7306 16.416C40.6853 15.328 40.1626 13.952 40.1626 12.288C40.1626 10.88 40.5253 9.64267 41.2506 8.576C41.976 7.488 42.9573 6.656 44.1946 6.08C45.4533 5.504 46.8506 5.216 48.3866 5.216C49.7733 5.216 50.9893 5.39733 52.0346 5.76C53.08 6.10133 53.9333 6.528 54.5946 7.04L53.1866 10.848C51.8 10.0373 50.3173 9.632 48.7386 9.632C47.5013 9.632 46.5626 9.888 45.9226 10.4C45.2826 10.912 44.9626 11.4987 44.9626 12.16C44.9626 12.5867 45.08 12.9387 45.3146 13.216C45.5706 13.4933 45.9866 13.7067 46.5626 13.856L47.3946 14.08C51.4053 15.1893 53.4106 17.4507 53.4106 20.864C53.4106 22.464 53.0266 23.8293 52.2586 24.96C51.512 26.0693 50.4773 26.912 49.1546 27.488C47.8533 28.0427 46.3706 28.32 44.7066 28.32ZM60.0836 19.84L56.5316 5.6H61.6196L62.6756 10.4L62.8996 14.624C62.921 14.8373 62.9956 14.944 63.1236 14.944C63.273 14.944 63.3903 14.8373 63.4756 14.624L67.6356 5.6H72.7876L65.2036 19.84L64.0196 28H58.8996L60.0836 19.84ZM75.0216 5.6H88.7816L88.1416 10.08H79.5016L78.8616 14.56H86.9576L86.3496 19.04H78.2536L76.9736 28H71.8536L75.0216 5.6ZM88.7584 23.84H91.7024L93.6864 9.76H90.7424L91.3504 5.6H102.326L101.718 9.76H98.7744L96.7904 23.84H99.7344L99.1584 28H88.1824L88.7584 23.84ZM108.898 10.08H103.938L104.578 5.6H119.618L118.978 10.08H114.018L111.49 28H106.37L108.898 10.08Z" fill="#212120"/>
</svg>
