<svg width="80" height="389" viewBox="0 0 80 389" fill="none" xmlns="http://www.w3.org/2000/svg">
<path fill-rule="evenodd" clip-rule="evenodd" d="M12.1467 387.622C7.11922 390.148 1.15792 386.655 0.904426 381.034C0.766479 377.975 2.43904 375.121 5.17497 373.746L68.097 342.131C73.1245 339.605 79.0858 343.099 79.3393 348.719C79.4773 351.778 77.8047 354.632 75.0688 356.007L12.1467 387.622ZM5.17496 331.153C2.43903 332.528 0.766478 335.382 0.904424 338.441C1.15791 344.061 7.11924 347.555 12.1468 345.029L75.0688 313.413C77.8047 312.039 79.4773 309.185 79.3393 306.126C79.0858 300.505 73.1245 297.012 68.097 299.538L5.17496 331.153ZM12.1467 302.432C7.11922 304.958 1.15791 301.465 0.904423 295.844C0.766477 292.785 2.43904 289.931 5.17497 288.556L68.097 256.941C73.1245 254.415 79.0858 257.909 79.3393 263.529C79.4773 266.588 77.8047 269.442 75.0688 270.817L12.1467 302.432ZM5.17495 245.963C2.43903 247.338 0.766476 250.192 0.904422 253.25C1.15791 258.871 7.11923 262.365 12.1468 259.838L75.0688 228.223C77.8047 226.849 79.4773 223.994 79.3393 220.936C79.0858 215.315 73.1245 211.822 68.097 214.348L5.17495 245.963ZM12.1467 217.245C7.11922 219.771 1.15791 216.278 0.904421 210.657C0.766475 207.598 2.43904 204.744 5.17496 203.369L68.097 171.754C73.1245 169.228 79.0858 172.722 79.3393 178.342C79.4773 181.401 77.8047 184.255 75.0688 185.63L12.1467 217.245ZM5.17495 160.776C2.43903 162.151 0.766474 165.005 0.90442 168.064C1.15791 173.684 7.11923 177.178 12.1468 174.652L75.0688 143.036C77.8047 141.662 79.4773 138.808 79.3393 135.749C79.0858 130.128 73.1245 126.635 68.097 129.161L5.17495 160.776ZM12.1467 132.058C7.11922 134.584 1.15791 131.091 0.904419 125.47C0.766473 122.411 2.43904 119.557 5.17496 118.183L68.097 86.5674C73.1245 84.0413 79.0858 87.5346 79.3393 93.1554C79.4773 96.2141 77.8047 99.0683 75.0688 100.443L12.1467 132.058ZM5.17495 75.5859C2.43903 76.9605 0.766472 79.8147 0.904418 82.8735C1.15791 88.4942 7.11923 91.9875 12.1468 89.4614L75.0688 57.8463C77.8047 56.4716 79.4773 53.6174 79.3393 50.5587C79.0858 44.9379 73.1245 41.4446 68.097 43.9707L5.17495 75.5859ZM5.17495 32.9924C2.43903 34.3671 0.766471 37.2213 0.904417 40.28C1.15791 45.9008 7.11923 49.3941 12.1468 46.868L75.0688 15.2529C77.8047 13.8782 79.4773 11.024 79.3393 7.96525C79.0858 2.3445 73.1245 -1.14882 68.097 1.37726L5.17495 32.9924Z" fill="#C2FF5D"/>
</svg>
