<svg width="79" height="230" viewBox="0 0 79 230" fill="none" xmlns="http://www.w3.org/2000/svg">
<path fill-rule="evenodd" clip-rule="evenodd" d="M11.2503 290.08C6.22274 292.606 0.261431 289.113 0.00794123 283.492C-0.130005 280.433 1.54256 277.579 4.27848 276.204L67.2005 244.589C72.228 242.063 78.1893 245.557 78.4428 251.177C78.5808 254.236 76.9082 257.09 74.1723 258.465L11.2503 290.08ZM4.27847 233.611C1.54255 234.986 -0.130006 237.84 0.00794009 240.899C0.26143 246.519 6.22275 250.013 11.2503 247.487L74.1723 215.871C76.9082 214.497 78.5808 211.643 78.4428 208.584C78.1893 202.963 72.228 199.47 67.2005 201.996L4.27847 233.611ZM11.2503 204.89C6.22274 207.416 0.261429 203.923 0.00793907 198.302C-0.130007 195.243 1.54256 192.389 4.27848 191.014L67.2005 159.399C72.228 156.873 78.1893 160.367 78.4428 165.987C78.5808 169.046 76.9082 171.9 74.1723 173.275L11.2503 204.89ZM4.27847 148.421C1.54255 149.796 -0.130008 152.65 0.00793798 155.708C0.261428 161.329 6.22275 164.823 11.2503 162.296L74.1723 130.681C76.9082 129.307 78.5808 126.452 78.4428 123.394C78.1893 117.773 72.228 114.28 67.2005 116.806L4.27847 148.421ZM11.2503 119.703C6.22273 122.229 0.261427 118.736 0.00793691 113.115C-0.13001 110.056 1.54256 107.202 4.27848 105.827L67.2005 74.2123C72.228 71.6862 78.1893 75.1795 78.4428 80.8003C78.5808 83.859 76.9082 86.7132 74.1723 88.0879L11.2503 119.703ZM4.27847 63.234C1.54254 64.6087 -0.130011 67.4628 0.00793584 70.5216C0.261426 76.1423 6.22275 79.6357 11.2503 77.1096L74.1723 45.4944C76.9082 44.1198 78.5808 41.2656 78.4428 38.2068C78.1893 32.5861 72.228 29.0928 67.2005 31.6188L4.27847 63.234ZM11.2503 34.5161C6.22274 37.0422 0.261425 33.5489 0.00793478 27.9281C-0.130012 24.8694 1.54255 22.0152 4.27848 20.6405L67.2005 -10.9746C72.228 -13.5007 78.1893 -10.0074 78.4428 -4.38662C78.5808 -1.32788 76.9082 1.52633 74.1723 2.90099L11.2503 34.5161ZM4.27847 -21.9561C1.54254 -20.5815 -0.130013 -17.7273 0.00793374 -14.6685C0.261424 -9.04778 6.22275 -5.55447 11.2503 -8.08054L74.1723 -39.6957C76.9082 -41.0704 78.5808 -43.9246 78.4428 -46.9833C78.1893 -52.6041 72.228 -56.0974 67.2005 -53.5713L4.27847 -21.9561ZM4.27847 -64.5496C1.54254 -63.1749 -0.130014 -60.3207 0.00793264 -57.262C0.261423 -51.6412 6.22274 -48.1479 11.2503 -50.674L74.1723 -82.2891C76.9082 -83.6638 78.5808 -86.518 78.4428 -89.5767C78.1893 -95.1975 72.228 -98.6908 67.2005 -96.1647L4.27847 -64.5496Z" fill="white"/>
</svg>
