<svg width="40" height="40" viewBox="0 0 40 40" fill="none" xmlns="http://www.w3.org/2000/svg">
<g id="State=Hovered">
<rect width="40" height="40" rx="20" fill="#212120"/>
<path id="Vector" d="M10.9997 29.3334C10.5466 29.3334 10.1555 29.1689 9.82649 28.8399C9.4975 28.5109 9.33301 28.1198 9.33301 27.6667V13.6667C9.33301 13.2135 9.4975 12.8225 9.82649 12.4935C10.1555 12.1645 10.5466 12 10.9997 12H29.6219C30.0751 12 30.4662 12.1645 30.7951 12.4935C31.1241 12.8225 31.2886 13.2135 31.2886 13.6667V27.6667C31.2886 28.1198 31.1241 28.5109 30.7951 28.8399C30.4662 29.1689 30.0751 29.3334 29.6219 29.3334H10.9997ZM20.3108 20.8422L10.6441 14.4444V27.6667C10.6441 27.7704 10.6774 27.8556 10.7441 27.9223C10.8108 27.9889 10.896 28.0223 10.9997 28.0223H29.6219C29.7256 28.0223 29.8108 27.9889 29.8775 27.9223C29.9442 27.8556 29.9775 27.7704 29.9775 27.6667V14.4444L20.3108 20.8422ZM20.3108 19.4645L29.7175 13.3111H10.933L20.3108 19.4645ZM10.6441 14.4444V13.3111V27.6667C10.6441 27.7704 10.6774 27.8556 10.7441 27.9223C10.8108 27.9889 10.896 28.0223 10.9997 28.0223H10.6441V14.4444Z" fill="#F5F5F5"/>
</g>
</svg>
