<svg width="397" height="397" viewBox="0 0 397 397" fill="none" xmlns="http://www.w3.org/2000/svg">
<rect width="397" height="397" rx="24" fill="#C2FF5D"/>
<path d="M79.6673 69.3281H70.6357C69.9133 69.3281 69.3276 69.9138 69.3276 70.6362V79.6678H79.6673V69.3281Z" fill="#212120"/>
<path d="M90.0069 69.3281H79.6673V79.6678H90.0069V69.3281Z" fill="#212120"/>
<path d="M100.347 69.3281H90.0069V79.6678H100.347V69.3281Z" fill="#212120"/>
<path d="M110.686 69.3281H100.347V79.6678H110.686V69.3281Z" fill="#212120"/>
<path d="M121.026 69.3281H110.686V79.6678H121.026V69.3281Z" fill="#212120"/>
<path d="M131.366 69.3281H121.026V79.6678H131.366V69.3281Z" fill="#212120"/>
<path d="M141.705 70.6362C141.705 69.9138 141.119 69.3281 140.397 69.3281H131.366V79.6678H141.705V70.6362Z" fill="#212120"/>
<path d="M162.384 70.6362C162.384 69.9138 161.799 69.3281 161.076 69.3281H153.353C152.63 69.3281 152.045 69.9138 152.045 70.6362V78.3597C152.045 79.0821 152.63 79.6678 153.353 79.6678H161.076C161.799 79.6678 162.384 79.0821 162.384 78.3597V70.6362Z" fill="#212120"/>
<path d="M193.403 69.3281H184.372C183.649 69.3281 183.064 69.9138 183.064 70.6362V79.6678H193.403V69.3281Z" fill="#212120"/>
<path d="M203.743 70.6362C203.743 69.9138 203.157 69.3281 202.435 69.3281H193.403V79.6678H203.743V70.6362Z" fill="#212120"/>
<path d="M234.762 70.6362C234.762 69.9138 234.176 69.3281 233.454 69.3281H225.73C225.008 69.3281 224.422 69.9138 224.422 70.6362V79.6678H233.454C234.176 79.6678 234.762 79.0821 234.762 78.3597V70.6362Z" fill="#212120"/>
<path d="M265.781 69.3281H256.749C256.027 69.3281 255.441 69.9138 255.441 70.6362V79.6678H265.781V69.3281Z" fill="#212120"/>
<path d="M276.121 69.3281H265.781V79.6678H276.121V69.3281Z" fill="#212120"/>
<path d="M286.46 69.3281H276.121V79.6678H286.46V69.3281Z" fill="#212120"/>
<path d="M296.8 69.3281H286.46V79.6678H296.8V69.3281Z" fill="#212120"/>
<path d="M307.139 69.3281H296.8V79.6678H307.139V69.3281Z" fill="#212120"/>
<path d="M317.479 69.3281H307.139V79.6678H317.479V69.3281Z" fill="#212120"/>
<path d="M327.819 70.6362C327.819 69.9138 327.233 69.3281 326.511 69.3281H317.479V79.6678H327.819V70.6362Z" fill="#212120"/>
<path d="M79.6673 79.6678H69.3276V90.0074H79.6673V79.6678Z" fill="#212120"/>
<path d="M141.705 79.6678H131.366L131.366 90.0074H141.705V79.6678Z" fill="#212120"/>
<path d="M183.064 79.6678H174.032C173.31 79.6678 172.724 80.2534 172.724 80.9758V90.0074H183.064V79.6678Z" fill="#212120"/>
<path d="M203.743 79.6678H193.403V88.6993C193.403 89.4218 193.989 90.0074 194.711 90.0074H203.743V79.6678Z" fill="#212120"/>
<path d="M214.083 79.6678H203.743V90.0074H214.083V79.6678Z" fill="#212120"/>
<path d="M224.422 79.6678H214.083V90.0074H224.422L224.422 79.6678Z" fill="#212120"/>
<path d="M265.781 79.6678H255.441V90.0074H265.781V79.6678Z" fill="#212120"/>
<path d="M327.819 79.6678H317.479V90.0074H327.819V79.6678Z" fill="#212120"/>
<path d="M79.6673 90.0074H69.3276V100.347H79.6673V90.0074Z" fill="#212120"/>
<path d="M100.347 90.0074H91.315C90.5926 90.0074 90.0069 90.5931 90.0069 91.3155V100.347H100.347V90.0074Z" fill="#212120"/>
<path d="M110.686 90.0074H100.347V100.347H110.686V90.0074Z" fill="#212120"/>
<path d="M121.026 91.3155C121.026 90.5931 120.44 90.0074 119.718 90.0074H110.686V100.347H121.026V91.3155Z" fill="#212120"/>
<path d="M141.705 90.0074H131.366V100.347H141.705V90.0074Z" fill="#212120"/>
<path d="M162.384 90.0074H153.353C152.63 90.0074 152.045 90.5931 152.045 91.3155V100.347H162.384V90.0074Z" fill="#212120"/>
<path d="M172.724 90.0074H162.384V100.347H172.724V90.0074Z" fill="#212120"/>
<path d="M183.064 90.0074H172.724V100.347H181.756C182.478 100.347 183.064 99.7614 183.064 99.039V90.0074Z" fill="#212120"/>
<path d="M214.083 90.0074H203.743V100.347H214.083V90.0074Z" fill="#212120"/>
<path d="M224.422 90.0074H214.083V100.347H224.422V90.0074Z" fill="#212120"/>
<path d="M234.762 91.3155C234.762 90.5931 234.176 90.0074 233.454 90.0074H224.422V100.347H234.762V91.3155Z" fill="#212120"/>
<path d="M265.781 90.0074H255.441V100.347H265.781V90.0074Z" fill="#212120"/>
<path d="M286.46 90.0074H277.429C276.706 90.0074 276.121 90.5931 276.121 91.3155V100.347H286.46V90.0074Z" fill="#212120"/>
<path d="M296.8 90.0074H286.46V100.347H296.8V90.0074Z" fill="#212120"/>
<path d="M307.139 91.3155C307.139 90.5931 306.554 90.0074 305.831 90.0074H296.8V100.347H307.139V91.3155Z" fill="#212120"/>
<path d="M327.819 90.0074H317.479V100.347H327.819V90.0074Z" fill="#212120"/>
<path d="M79.6673 100.347H69.3276V110.687H79.6673V100.347Z" fill="#212120"/>
<path d="M100.347 100.347H90.0069V110.687H100.347V100.347Z" fill="#212120"/>
<path d="M110.686 100.347H100.347V110.687H110.686V100.347Z" fill="#212120"/>
<path d="M121.026 100.347H110.686V110.687H121.026V100.347Z" fill="#212120"/>
<path d="M141.705 100.347H131.366V110.687H141.705V100.347Z" fill="#212120"/>
<path d="M162.384 100.347H152.045V109.379C152.045 110.101 152.63 110.687 153.353 110.687H162.384V100.347Z" fill="#212120"/>
<path d="M214.083 100.347H203.743V110.687H214.083V100.347Z" fill="#212120"/>
<path d="M224.422 100.347H214.083V110.687H224.422V100.347Z" fill="#212120"/>
<path d="M245.102 101.655C245.102 100.933 244.516 100.347 243.794 100.347H234.762V110.687H245.102V101.655Z" fill="#212120"/>
<path d="M265.781 100.347H255.441V110.687H265.781V100.347Z" fill="#212120"/>
<path d="M286.46 100.347H276.121V110.687H286.46V100.347Z" fill="#212120"/>
<path d="M296.8 100.347H286.46V110.687H296.8V100.347Z" fill="#212120"/>
<path d="M307.139 100.347H296.8V110.687H307.139V100.347Z" fill="#212120"/>
<path d="M327.819 100.347H317.479V110.687H327.819V100.347Z" fill="#212120"/>
<path d="M79.6673 110.687H69.3276V121.026H79.6673V110.687Z" fill="#212120"/>
<path d="M100.347 110.687H90.0069V119.718C90.0069 120.441 90.5926 121.026 91.315 121.026H100.347V110.687Z" fill="#212120"/>
<path d="M110.686 110.687H100.347V121.026H110.686V110.687Z" fill="#212120"/>
<path d="M121.026 110.687H110.686V121.026H119.718C120.44 121.026 121.026 120.441 121.026 119.718V110.687Z" fill="#212120"/>
<path d="M141.705 110.687H131.366V121.026H141.705V110.687Z" fill="#212120"/>
<path d="M172.724 111.995C172.724 111.272 172.138 110.687 171.416 110.687H162.384V121.026H171.416C172.138 121.026 172.724 120.441 172.724 119.718V111.995Z" fill="#212120"/>
<path d="M203.743 110.687H194.711C193.989 110.687 193.403 111.272 193.403 111.995V121.026H203.743V110.687Z" fill="#212120"/>
<path d="M214.083 110.687H203.743V121.026H214.083V110.687Z" fill="#212120"/>
<path d="M234.762 110.687H224.422L224.422 121.026H234.762V110.687Z" fill="#212120"/>
<path d="M245.102 110.687H234.762V121.026H243.794C244.516 121.026 245.102 120.441 245.102 119.718V110.687Z" fill="#212120"/>
<path d="M265.781 110.687H255.441V121.026H265.781V110.687Z" fill="#212120"/>
<path d="M286.46 110.687H276.121V119.718C276.121 120.441 276.706 121.026 277.429 121.026H286.46V110.687Z" fill="#212120"/>
<path d="M296.8 110.687H286.46V121.026H296.8V110.687Z" fill="#212120"/>
<path d="M307.139 110.687H296.8V121.026H305.831C306.554 121.026 307.139 120.441 307.139 119.718V110.687Z" fill="#212120"/>
<path d="M327.819 110.687H317.479V121.026H327.819V110.687Z" fill="#212120"/>
<path d="M79.6673 121.026H69.3276V131.366H79.6673V121.026Z" fill="#212120"/>
<path d="M141.705 121.026H131.366V131.366H141.705V121.026Z" fill="#212120"/>
<path d="M162.384 121.026H153.353C152.63 121.026 152.045 121.612 152.045 122.334V131.366H162.384V121.026Z" fill="#212120"/>
<path d="M193.403 121.026H184.372C183.649 121.026 183.064 121.612 183.064 122.334V131.366H193.403V121.026Z" fill="#212120"/>
<path d="M224.422 121.026H214.083V131.366H224.422L224.422 121.026Z" fill="#212120"/>
<path d="M234.762 121.026H224.422L224.422 131.366H234.762V121.026Z" fill="#212120"/>
<path d="M265.781 121.026H255.441V131.366H265.781V121.026Z" fill="#212120"/>
<path d="M327.819 121.026H317.479V131.366H327.819V121.026Z" fill="#212120"/>
<path d="M79.6673 131.366H69.3276V140.398C69.3276 141.12 69.9133 141.706 70.6357 141.706H79.6673V131.366Z" fill="#212120"/>
<path d="M90.0069 131.366L79.6673 131.366V141.706H90.0069V131.366Z" fill="#212120"/>
<path d="M100.347 131.366H90.0069V141.706H100.347V131.366Z" fill="#212120"/>
<path d="M110.686 131.366H100.347V141.706H110.686V131.366Z" fill="#212120"/>
<path d="M121.026 131.366H110.686V141.706H121.026V131.366Z" fill="#212120"/>
<path d="M131.366 131.366L121.026 131.366V141.706H131.366L131.366 131.366Z" fill="#212120"/>
<path d="M141.705 131.366H131.366L131.366 141.706H140.397C141.119 141.706 141.705 141.12 141.705 140.398V131.366Z" fill="#212120"/>
<path d="M162.384 131.366H152.045V141.706H162.384V131.366Z" fill="#212120"/>
<path d="M183.064 131.366L174.032 131.366C173.31 131.366 172.724 131.952 172.724 132.674V140.398C172.724 141.12 173.31 141.706 174.032 141.706H183.064V131.366Z" fill="#212120"/>
<path d="M203.743 132.674C203.743 131.952 203.157 131.366 202.435 131.366L193.403 131.366V141.706H203.743V132.674Z" fill="#212120"/>
<path d="M224.422 131.366H214.083V140.398C214.083 141.12 214.668 141.706 215.391 141.706H224.422V131.366Z" fill="#212120"/>
<path d="M245.102 132.674C245.102 131.952 244.516 131.366 243.794 131.366L234.762 131.366V141.706H243.794C244.516 141.706 245.102 141.12 245.102 140.398V132.674Z" fill="#212120"/>
<path d="M265.781 131.366H255.441V140.398C255.441 141.12 256.027 141.706 256.749 141.706H265.781V131.366Z" fill="#212120"/>
<path d="M276.121 131.366L265.781 131.366V141.706H276.121V131.366Z" fill="#212120"/>
<path d="M286.46 131.366H276.121V141.706H286.46V131.366Z" fill="#212120"/>
<path d="M296.8 131.366H286.46V141.706H296.8V131.366Z" fill="#212120"/>
<path d="M307.139 131.366H296.8V141.706H307.139V131.366Z" fill="#212120"/>
<path d="M317.479 131.366L307.139 131.366V141.706H317.479V131.366Z" fill="#212120"/>
<path d="M327.819 131.366H317.479V141.706H326.511C327.233 141.706 327.819 141.12 327.819 140.398V131.366Z" fill="#212120"/>
<path d="M162.384 141.706H152.045V152.045H162.384V141.706Z" fill="#212120"/>
<path d="M193.403 141.706H183.064V152.045H193.403V141.706Z" fill="#212120"/>
<path d="M203.743 141.706H193.403V152.045H203.743V141.706Z" fill="#212120"/>
<path d="M234.762 141.706H224.422L224.422 152.045H234.762V141.706Z" fill="#212120"/>
<path d="M79.6673 152.045H70.6357C69.9133 152.045 69.3276 152.631 69.3276 153.353V162.385H79.6673V152.045Z" fill="#212120"/>
<path d="M90.0069 153.353C90.0069 152.631 89.4213 152.045 88.6989 152.045H79.6673V162.385H90.0069V153.353Z" fill="#212120"/>
<path d="M110.686 153.353C110.686 152.631 110.101 152.045 109.378 152.045H101.655C100.932 152.045 100.347 152.631 100.347 153.353V162.385H109.378C110.101 162.385 110.686 161.799 110.686 161.077V153.353Z" fill="#212120"/>
<path d="M141.705 152.045H132.674C131.951 152.045 131.366 152.631 131.366 153.353V162.385H141.705V152.045Z" fill="#212120"/>
<path d="M152.045 152.045H141.705V162.385H152.045V152.045Z" fill="#212120"/>
<path d="M172.724 152.045H162.384V162.385H172.724V152.045Z" fill="#212120"/>
<path d="M183.064 152.045H172.724V162.385H183.064V152.045Z" fill="#212120"/>
<path d="M203.743 152.045H193.403V161.077C193.403 161.799 193.989 162.385 194.711 162.385H203.743V152.045Z" fill="#212120"/>
<path d="M224.422 152.045H215.391C214.668 152.045 214.083 152.631 214.083 153.353V162.385H224.422L224.422 152.045Z" fill="#212120"/>
<path d="M234.762 152.045H224.422L224.422 162.385H234.762V152.045Z" fill="#212120"/>
<path d="M245.102 152.045H234.762V162.385H245.102V152.045Z" fill="#212120"/>
<path d="M255.441 152.045H245.102V162.385H255.441V152.045Z" fill="#212120"/>
<path d="M265.781 152.045H255.441V162.385H265.781V152.045Z" fill="#212120"/>
<path d="M276.121 153.353C276.121 152.631 275.535 152.045 274.812 152.045H265.781V162.385H274.812C275.535 162.385 276.121 161.799 276.121 161.077V153.353Z" fill="#212120"/>
<path d="M296.8 152.045H287.768C287.046 152.045 286.46 152.631 286.46 153.353V161.077C286.46 161.799 287.046 162.385 287.768 162.385H296.8V152.045Z" fill="#212120"/>
<path d="M307.139 153.353C307.139 152.631 306.554 152.045 305.831 152.045H296.8V162.385H307.139V153.353Z" fill="#212120"/>
<path d="M327.819 153.353C327.819 152.631 327.233 152.045 326.511 152.045H318.787C318.065 152.045 317.479 152.631 317.479 153.353V162.385H326.511C327.233 162.385 327.819 161.799 327.819 161.077V153.353Z" fill="#212120"/>
<path d="M79.6673 162.385H69.3276V172.725H79.6673V162.385Z" fill="#212120"/>
<path d="M90.0069 162.385H79.6673V172.725H90.0069V162.385Z" fill="#212120"/>
<path d="M100.347 162.385H90.0069V172.725H99.0385C99.7609 172.725 100.347 172.139 100.347 171.417V162.385Z" fill="#212120"/>
<path d="M131.366 162.385H122.334C121.612 162.385 121.026 162.971 121.026 163.693V172.725H131.366L131.366 162.385Z" fill="#212120"/>
<path d="M152.045 162.385H141.705V172.725H152.045V162.385Z" fill="#212120"/>
<path d="M172.724 162.385H162.384V171.417C162.384 172.139 162.97 172.725 163.693 172.725H172.724V162.385Z" fill="#212120"/>
<path d="M183.064 162.385H172.724V172.725H181.756C182.478 172.725 183.064 172.139 183.064 171.417V162.385Z" fill="#212120"/>
<path d="M214.083 162.385H203.743V171.417C203.743 172.139 204.329 172.725 205.051 172.725H214.083V162.385Z" fill="#212120"/>
<path d="M224.422 162.385H214.083V172.725H224.422V162.385Z" fill="#212120"/>
<path d="M245.102 162.385H234.762V172.725H245.102V162.385Z" fill="#212120"/>
<path d="M255.441 162.385H245.102V172.725H255.441V162.385Z" fill="#212120"/>
<path d="M265.781 162.385H255.441V172.725H265.781V162.385Z" fill="#212120"/>
<path d="M317.479 162.385H307.139V172.725H317.479V162.385Z" fill="#212120"/>
<path d="M79.6673 172.725H69.3276V181.756C69.3276 182.479 69.9133 183.064 70.6357 183.064H79.6673V172.725Z" fill="#212120"/>
<path d="M90.0069 172.725H79.6673V183.064H90.0069V172.725Z" fill="#212120"/>
<path d="M131.366 172.725H121.026V183.064H131.366V172.725Z" fill="#212120"/>
<path d="M141.705 172.725H131.366V183.064H141.705V172.725Z" fill="#212120"/>
<path d="M152.045 172.725H141.705V183.064H152.045V172.725Z" fill="#212120"/>
<path d="M234.762 172.725H224.422L224.422 181.756C224.422 182.479 225.008 183.064 225.73 183.064H234.762V172.725Z" fill="#212120"/>
<path d="M265.781 172.725H255.441V183.064H265.781V172.725Z" fill="#212120"/>
<path d="M296.8 172.725H287.768C287.046 172.725 286.46 173.31 286.46 174.033V183.064H296.8V172.725Z" fill="#212120"/>
<path d="M307.139 172.725H296.8V183.064H307.139V172.725Z" fill="#212120"/>
<path d="M317.479 172.725H307.139V183.064H317.479V172.725Z" fill="#212120"/>
<path d="M327.819 174.033C327.819 173.31 327.233 172.725 326.511 172.725H317.479V183.064H326.511C327.233 183.064 327.819 182.479 327.819 181.756V174.033Z" fill="#212120"/>
<path d="M100.347 183.064H90.0069V192.096C90.0069 192.818 90.5926 193.404 91.315 193.404H100.347V183.064Z" fill="#212120"/>
<path d="M110.686 183.064H100.347V193.404H110.686V183.064Z" fill="#212120"/>
<path d="M121.026 183.064H110.686V193.404H119.718C120.44 193.404 121.026 192.818 121.026 192.096V183.064Z" fill="#212120"/>
<path d="M152.045 183.064H141.705V193.404H152.045V183.064Z" fill="#212120"/>
<path d="M162.384 183.064H152.045V193.404H162.384V183.064Z" fill="#212120"/>
<path d="M172.724 183.064H162.384V193.404H172.724V183.064Z" fill="#212120"/>
<path d="M183.064 183.064H172.724V193.404H183.064V183.064Z" fill="#212120"/>
<path d="M193.403 184.372C193.403 183.65 192.818 183.064 192.095 183.064H183.064V193.404H192.095C192.818 193.404 193.403 192.818 193.403 192.096V184.372Z" fill="#212120"/>
<path d="M214.083 184.372C214.083 183.65 213.497 183.064 212.775 183.064H205.051C204.329 183.064 203.743 183.65 203.743 184.372V192.096C203.743 192.818 204.329 193.404 205.051 193.404H214.083V184.372Z" fill="#212120"/>
<path d="M245.102 184.372C245.102 183.65 244.516 183.064 243.794 183.064H234.762V193.404H245.102V184.372Z" fill="#212120"/>
<path d="M265.781 183.064H255.441V193.404H265.781V183.064Z" fill="#212120"/>
<path d="M286.46 183.064H277.429C276.706 183.064 276.121 183.65 276.121 184.372V193.404H286.46V183.064Z" fill="#212120"/>
<path d="M307.139 183.064H296.8V193.404H307.139V183.064Z" fill="#212120"/>
<path d="M141.705 193.404H132.674C131.951 193.404 131.366 193.99 131.366 194.712V203.743H141.705V193.404Z" fill="#212120"/>
<path d="M152.045 193.404H141.705V203.743H150.737C151.459 203.743 152.045 203.158 152.045 202.435V193.404Z" fill="#212120"/>
<path d="M224.422 193.404H214.083V203.743H224.422V193.404Z" fill="#212120"/>
<path d="M234.762 193.404H224.422V203.743H234.762V193.404Z" fill="#212120"/>
<path d="M255.441 193.404H245.102V203.743H255.441V193.404Z" fill="#212120"/>
<path d="M265.781 193.404H255.441V203.743H265.781V193.404Z" fill="#212120"/>
<path d="M276.121 193.404H265.781V203.743H276.121V193.404Z" fill="#212120"/>
<path d="M286.46 193.404H276.121V203.743H286.46V193.404Z" fill="#212120"/>
<path d="M296.8 193.404H286.46V203.743H296.8V193.404Z" fill="#212120"/>
<path d="M307.139 193.404H296.8V203.743H307.139V193.404Z" fill="#212120"/>
<path d="M327.819 194.712C327.819 193.99 327.233 193.404 326.511 193.404H318.787C318.065 193.404 317.479 193.99 317.479 194.712V202.435C317.479 203.158 318.065 203.743 318.787 203.743H326.511C327.233 203.743 327.819 203.158 327.819 202.435V194.712Z" fill="#212120"/>
<path d="M100.347 203.743H91.315C90.5926 203.743 90.0069 204.329 90.0069 205.052V214.083H100.347V203.743Z" fill="#212120"/>
<path d="M110.686 205.052C110.686 204.329 110.101 203.743 109.378 203.743H100.347V214.083H110.686V205.052Z" fill="#212120"/>
<path d="M131.366 203.743H122.334C121.612 203.743 121.026 204.329 121.026 205.052V214.083H131.366L131.366 203.743Z" fill="#212120"/>
<path d="M183.064 203.743H174.032C173.31 203.743 172.724 204.329 172.724 205.052V214.083H183.064V203.743Z" fill="#212120"/>
<path d="M193.403 203.743H183.064V214.083H193.403V203.743Z" fill="#212120"/>
<path d="M203.743 205.052C203.743 204.329 203.157 203.743 202.435 203.743H193.403V214.083H203.743V205.052Z" fill="#212120"/>
<path d="M224.422 203.743H214.083V214.083H224.422V203.743Z" fill="#212120"/>
<path d="M245.102 203.743H234.762V214.083H245.102V203.743Z" fill="#212120"/>
<path d="M265.781 203.743H255.441V214.083H265.781V203.743Z" fill="#212120"/>
<path d="M286.46 203.743H276.121V212.775C276.121 213.498 276.706 214.083 277.429 214.083H286.46V203.743Z" fill="#212120"/>
<path d="M296.8 203.743H286.46V214.083H296.8V203.743Z" fill="#212120"/>
<path d="M307.139 203.743H296.8V214.083H305.831C306.554 214.083 307.139 213.498 307.139 212.775V203.743Z" fill="#212120"/>
<path d="M79.6673 214.083H70.6357C69.9133 214.083 69.3276 214.669 69.3276 215.391V223.115C69.3276 223.837 69.9133 224.423 70.6357 224.423H79.6673V214.083Z" fill="#212120"/>
<path d="M90.0069 214.083H79.6673V224.423H90.0069V214.083Z" fill="#212120"/>
<path d="M110.686 214.083H100.347V224.423H110.686V214.083Z" fill="#212120"/>
<path d="M121.026 214.083H110.686V224.423H121.026V214.083Z" fill="#212120"/>
<path d="M141.705 215.391C141.705 214.669 141.119 214.083 140.397 214.083H131.366L131.366 223.115C131.366 223.837 131.951 224.423 132.674 224.423H141.705V215.391Z" fill="#212120"/>
<path d="M162.384 215.391C162.384 214.669 161.799 214.083 161.076 214.083H153.353C152.63 214.083 152.045 214.669 152.045 215.391V224.423H162.384V215.391Z" fill="#212120"/>
<path d="M183.064 214.083H172.724V223.115C172.724 223.837 173.31 224.423 174.032 224.423H183.064V214.083Z" fill="#212120"/>
<path d="M193.403 214.083H183.064V224.423H193.403V214.083Z" fill="#212120"/>
<path d="M203.743 214.083H193.403V224.423H203.743V214.083Z" fill="#212120"/>
<path d="M214.083 214.083H203.743V224.423H214.083V214.083Z" fill="#212120"/>
<path d="M224.422 214.083H214.083V224.423H224.422V214.083Z" fill="#212120"/>
<path d="M234.762 214.083H224.422V224.423H234.762V214.083Z" fill="#212120"/>
<path d="M245.102 214.083H234.762V224.423H245.102V214.083Z" fill="#212120"/>
<path d="M265.781 214.083H255.441V223.115C255.441 223.837 256.027 224.423 256.749 224.423H265.781V214.083Z" fill="#212120"/>
<path d="M327.819 215.391C327.819 214.669 327.233 214.083 326.511 214.083H318.787C318.065 214.083 317.479 214.669 317.479 215.391V223.115C317.479 223.837 318.065 224.423 318.787 224.423H326.511C327.233 224.423 327.819 223.837 327.819 223.115V215.391Z" fill="#212120"/>
<path d="M100.347 224.423H90.0069V234.762H100.347V224.423Z" fill="#212120"/>
<path d="M110.686 224.423H100.347V234.762H110.686V224.423Z" fill="#212120"/>
<path d="M121.026 224.423H110.686V234.762H121.026V224.423Z" fill="#212120"/>
<path d="M152.045 224.423H141.705V234.762H152.045V224.423Z" fill="#212120"/>
<path d="M162.384 224.423H152.045V234.762H162.384V224.423Z" fill="#212120"/>
<path d="M203.743 224.423H193.403V234.762H203.743V224.423Z" fill="#212120"/>
<path d="M214.083 224.423H203.743V234.762H214.083V224.423Z" fill="#212120"/>
<path d="M234.762 224.423H224.422L224.422 233.454C224.422 234.177 225.008 234.762 225.73 234.762H234.762V224.423Z" fill="#212120"/>
<path d="M245.102 224.423H234.762V234.762H245.102V224.423Z" fill="#212120"/>
<path d="M276.121 225.731C276.121 225.008 275.535 224.423 274.812 224.423L265.781 224.423V234.762H276.121V225.731Z" fill="#212120"/>
<path d="M296.8 224.423H287.768C287.046 224.423 286.46 225.008 286.46 225.731V234.762H296.8V224.423Z" fill="#212120"/>
<path d="M307.139 225.731C307.139 225.008 306.554 224.423 305.831 224.423H296.8V234.762H305.831C306.554 234.762 307.139 234.177 307.139 233.454V225.731Z" fill="#212120"/>
<path d="M79.6673 234.762H70.6357C69.9133 234.762 69.3276 235.348 69.3276 236.071V243.794C69.3276 244.516 69.9133 245.102 70.6357 245.102H79.6673V234.762Z" fill="#212120"/>
<path d="M90.0069 234.762H79.6673V245.102H90.0069V234.762Z" fill="#212120"/>
<path d="M100.347 234.762H90.0069V245.102H100.347V234.762Z" fill="#212120"/>
<path d="M110.686 234.762H100.347V245.102H110.686V234.762Z" fill="#212120"/>
<path d="M121.026 234.762H110.686V245.102H121.026V234.762Z" fill="#212120"/>
<path d="M131.366 234.762H121.026V245.102H131.366V234.762Z" fill="#212120"/>
<path d="M141.705 234.762H131.366V245.102H141.705V234.762Z" fill="#212120"/>
<path d="M152.045 234.762H141.705V245.102H152.045V234.762Z" fill="#212120"/>
<path d="M162.384 234.762H152.045V245.102H161.076C161.799 245.102 162.384 244.516 162.384 243.794V234.762Z" fill="#212120"/>
<path d="M203.743 234.762H193.403V245.102H203.743V234.762Z" fill="#212120"/>
<path d="M214.083 234.762H203.743V245.102H212.775C213.497 245.102 214.083 244.516 214.083 243.794V234.762Z" fill="#212120"/>
<path d="M245.102 234.762H234.762V245.102H245.102V234.762Z" fill="#212120"/>
<path d="M255.441 234.762H245.102V245.102H255.441V234.762Z" fill="#212120"/>
<path d="M265.781 234.762H255.441V245.102H265.781V234.762Z" fill="#212120"/>
<path d="M276.121 234.762H265.781V245.102H276.121V234.762Z" fill="#212120"/>
<path d="M286.46 234.762H276.121V245.102H286.46V234.762Z" fill="#212120"/>
<path d="M296.8 234.762H286.46V245.102H296.8V234.762Z" fill="#212120"/>
<path d="M183.064 245.102H174.032C173.31 245.102 172.724 245.688 172.724 246.41V254.134C172.724 254.856 173.31 255.442 174.032 255.442H183.064V245.102Z" fill="#212120"/>
<path d="M193.403 245.102H183.064V255.442H193.403V245.102Z" fill="#212120"/>
<path d="M203.743 245.102H193.403V255.442H203.743V245.102Z" fill="#212120"/>
<path d="M234.762 245.102H225.73C225.008 245.102 224.422 245.688 224.422 246.41V254.134C224.422 254.856 225.008 255.442 225.73 255.442H234.762V245.102Z" fill="#212120"/>
<path d="M245.102 245.102H234.762V255.442H245.102V245.102Z" fill="#212120"/>
<path d="M286.46 245.102H276.121V255.442H286.46V245.102Z" fill="#212120"/>
<path d="M296.8 245.102H286.46V255.442H296.8V245.102Z" fill="#212120"/>
<path d="M327.819 246.41C327.819 245.688 327.233 245.102 326.511 245.102H318.787C318.065 245.102 317.479 245.688 317.479 246.41V255.442H327.819V246.41Z" fill="#212120"/>
<path d="M79.6673 255.442H70.6357C69.9133 255.442 69.3276 256.027 69.3276 256.75V265.781H79.6673V255.442Z" fill="#212120"/>
<path d="M90.0069 255.442H79.6673V265.781H90.0069V255.442Z" fill="#212120"/>
<path d="M100.347 255.442H90.0069V265.781H100.347V255.442Z" fill="#212120"/>
<path d="M110.686 255.442H100.347V265.781H110.686V255.442Z" fill="#212120"/>
<path d="M121.026 255.442H110.686V265.781H121.026V255.442Z" fill="#212120"/>
<path d="M131.366 255.442H121.026V265.781H131.366V255.442Z" fill="#212120"/>
<path d="M141.705 256.75C141.705 256.027 141.119 255.442 140.397 255.442H131.366V265.781H141.705V256.75Z" fill="#212120"/>
<path d="M162.384 256.75C162.384 256.027 161.799 255.442 161.076 255.442H153.353C152.63 255.442 152.045 256.027 152.045 256.75V264.473C152.045 265.196 152.63 265.781 153.353 265.781H162.384V256.75Z" fill="#212120"/>
<path d="M203.743 255.442H193.403V264.473C193.403 265.196 193.989 265.781 194.711 265.781H203.743V255.442Z" fill="#212120"/>
<path d="M214.083 256.75C214.083 256.027 213.497 255.442 212.775 255.442H203.743V265.781H214.083V256.75Z" fill="#212120"/>
<path d="M245.102 255.442H234.762V265.781H245.102V255.442Z" fill="#212120"/>
<path d="M265.781 256.75C265.781 256.027 265.195 255.442 264.473 255.442H256.749C256.027 255.442 255.441 256.027 255.441 256.75V264.473C255.441 265.196 256.027 265.781 256.749 265.781H264.473C265.195 265.781 265.781 265.196 265.781 264.473V256.75Z" fill="#212120"/>
<path d="M286.46 255.442H276.121V265.781H286.46V255.442Z" fill="#212120"/>
<path d="M296.8 255.442H286.46V265.781H296.8V255.442Z" fill="#212120"/>
<path d="M307.139 255.442H296.8V265.781H307.139V255.442Z" fill="#212120"/>
<path d="M317.479 255.442H307.139V265.781H317.479V255.442Z" fill="#212120"/>
<path d="M327.819 255.442H317.479V265.781H327.819V255.442Z" fill="#212120"/>
<path d="M79.6673 265.781H69.3276V276.121H79.6673V265.781Z" fill="#212120"/>
<path d="M141.705 265.781H131.366L131.366 276.121H141.705V265.781Z" fill="#212120"/>
<path d="M172.724 265.781H162.384V274.813C162.384 275.535 162.97 276.121 163.693 276.121H172.724V265.781Z" fill="#212120"/>
<path d="M183.064 267.089C183.064 266.367 182.478 265.781 181.756 265.781H172.724V276.121H183.064V267.089Z" fill="#212120"/>
<path d="M214.083 265.781H203.743V276.121H214.083V265.781Z" fill="#212120"/>
<path d="M234.762 265.781H225.73C225.008 265.781 224.422 266.367 224.422 267.089V276.121H234.762V265.781Z" fill="#212120"/>
<path d="M245.102 265.781H234.762V276.121H245.102V265.781Z" fill="#212120"/>
<path d="M286.46 265.781H276.121V276.121H286.46V265.781Z" fill="#212120"/>
<path d="M327.819 265.781H317.479V276.121H327.819V265.781Z" fill="#212120"/>
<path d="M79.6673 276.121H69.3276V286.461H79.6673V276.121Z" fill="#212120"/>
<path d="M100.347 276.121H91.315C90.5926 276.121 90.0069 276.707 90.0069 277.429V286.461H100.347V276.121Z" fill="#212120"/>
<path d="M110.686 276.121H100.347V286.461H110.686V276.121Z" fill="#212120"/>
<path d="M121.026 277.429C121.026 276.707 120.44 276.121 119.718 276.121H110.686V286.461H121.026V277.429Z" fill="#212120"/>
<path d="M141.705 276.121H131.366V286.461H141.705V276.121Z" fill="#212120"/>
<path d="M183.064 276.121H172.724V285.153C172.724 285.875 173.31 286.461 174.032 286.461H183.064V276.121Z" fill="#212120"/>
<path d="M203.743 276.121H194.711C193.989 276.121 193.403 276.707 193.403 277.429V286.461H203.743V276.121Z" fill="#212120"/>
<path d="M214.083 276.121H203.743V286.461H214.083V276.121Z" fill="#212120"/>
<path d="M224.422 276.121H214.083V286.461H224.422L224.422 276.121Z" fill="#212120"/>
<path d="M234.762 276.121H224.422L224.422 286.461H234.762V276.121Z" fill="#212120"/>
<path d="M245.102 276.121H234.762V286.461H245.102V276.121Z" fill="#212120"/>
<path d="M255.441 276.121H245.102V286.461H255.441V276.121Z" fill="#212120"/>
<path d="M265.781 276.121H255.441V286.461H265.781V276.121Z" fill="#212120"/>
<path d="M276.121 276.121H265.781V286.461H276.121V276.121Z" fill="#212120"/>
<path d="M286.46 276.121H276.121V286.461H286.46V276.121Z" fill="#212120"/>
<path d="M296.8 276.121H286.46V286.461H296.8V276.121Z" fill="#212120"/>
<path d="M307.139 276.121H296.8V286.461H307.139V276.121Z" fill="#212120"/>
<path d="M317.479 276.121H307.139V286.461H317.479V276.121Z" fill="#212120"/>
<path d="M327.819 276.121H317.479V286.461H327.819V276.121Z" fill="#212120"/>
<path d="M79.6673 286.461H69.3276V296.8H79.6673V286.461Z" fill="#212120"/>
<path d="M100.347 286.461H90.0069V296.8H100.347V286.461Z" fill="#212120"/>
<path d="M110.686 286.461H100.347V296.8H110.686V286.461Z" fill="#212120"/>
<path d="M121.026 286.461H110.686V296.8H121.026V286.461Z" fill="#212120"/>
<path d="M141.705 286.461H131.366V296.8H141.705V286.461Z" fill="#212120"/>
<path d="M162.384 287.769C162.384 287.046 161.799 286.461 161.076 286.461H153.353C152.63 286.461 152.045 287.046 152.045 287.769V295.492C152.045 296.215 152.63 296.8 153.353 296.8H161.076C161.799 296.8 162.384 296.215 162.384 295.492V287.769Z" fill="#212120"/>
<path d="M193.403 286.461H183.064V296.8H193.403V286.461Z" fill="#212120"/>
<path d="M245.102 286.461H234.762V296.8H245.102V286.461Z" fill="#212120"/>
<path d="M286.46 286.461H276.121V295.492C276.121 296.215 276.706 296.8 277.429 296.8H286.46V286.461Z" fill="#212120"/>
<path d="M296.8 286.461H286.46V296.8H296.8V286.461Z" fill="#212120"/>
<path d="M327.819 286.461H317.479V296.8H327.819V286.461Z" fill="#212120"/>
<path d="M79.6673 296.8H69.3276V307.14H79.6673V296.8Z" fill="#212120"/>
<path d="M100.347 296.8H90.0069V305.832C90.0069 306.554 90.5926 307.14 91.315 307.14H100.347V296.8Z" fill="#212120"/>
<path d="M110.686 296.8H100.347V307.14H110.686V296.8Z" fill="#212120"/>
<path d="M121.026 296.8H110.686V307.14H119.718C120.44 307.14 121.026 306.554 121.026 305.832V296.8Z" fill="#212120"/>
<path d="M141.705 296.8H131.366V307.14H141.705V296.8Z" fill="#212120"/>
<path d="M193.403 296.8H183.064V305.832C183.064 306.554 183.649 307.14 184.372 307.14H193.403V296.8Z" fill="#212120"/>
<path d="M203.743 298.108C203.743 297.386 203.157 296.8 202.435 296.8H193.403V307.14H203.743V298.108Z" fill="#212120"/>
<path d="M224.422 298.108C224.422 297.386 223.837 296.8 223.114 296.8H215.391C214.668 296.8 214.083 297.386 214.083 298.108V307.14H224.422V298.108Z" fill="#212120"/>
<path d="M245.102 296.8H234.762V307.14H245.102V296.8Z" fill="#212120"/>
<path d="M255.441 296.8H245.102V307.14H255.441V296.8Z" fill="#212120"/>
<path d="M265.781 298.108C265.781 297.386 265.195 296.8 264.473 296.8H255.441V307.14H265.781V298.108Z" fill="#212120"/>
<path d="M296.8 296.8H286.46V307.14H296.8V296.8Z" fill="#212120"/>
<path d="M307.139 296.8H296.8V307.14H307.139V296.8Z" fill="#212120"/>
<path d="M317.479 296.8H307.139V307.14H317.479V296.8Z" fill="#212120"/>
<path d="M327.819 296.8H317.479V307.14H327.819V296.8Z" fill="#212120"/>
<path d="M79.6673 307.14H69.3276V317.48H79.6673V307.14Z" fill="#212120"/>
<path d="M141.705 307.14H131.366V317.48H141.705V307.14Z" fill="#212120"/>
<path d="M162.384 307.14H153.353C152.63 307.14 152.045 307.726 152.045 308.448V317.48H162.384V307.14Z" fill="#212120"/>
<path d="M172.724 308.448C172.724 307.726 172.138 307.14 171.416 307.14H162.384V317.48H171.416C172.138 317.48 172.724 316.894 172.724 316.172V308.448Z" fill="#212120"/>
<path d="M203.743 307.14H193.403V317.48H203.743V307.14Z" fill="#212120"/>
<path d="M224.422 307.14H214.083V317.48H224.422V307.14Z" fill="#212120"/>
<path d="M245.102 307.14H234.762V317.48H245.102V307.14Z" fill="#212120"/>
<path d="M265.781 307.14H255.441V317.48H265.781V307.14Z" fill="#212120"/>
<path d="M276.121 307.14H265.781V317.48H276.121V307.14Z" fill="#212120"/>
<path d="M286.46 307.14H276.121V317.48H286.46V307.14Z" fill="#212120"/>
<path d="M296.8 307.14H286.46V317.48H296.8V307.14Z" fill="#212120"/>
<path d="M307.139 307.14H296.8V317.48H305.831C306.554 317.48 307.139 316.894 307.139 316.172V307.14Z" fill="#212120"/>
<path d="M327.819 307.14H317.479V317.48H327.819V307.14Z" fill="#212120"/>
<path d="M79.6673 317.48H69.3276V326.511C69.3276 327.234 69.9133 327.819 70.6357 327.819H79.6673V317.48Z" fill="#212120"/>
<path d="M90.0069 317.48H79.6673V327.819H90.0069V317.48Z" fill="#212120"/>
<path d="M100.347 317.48H90.0069V327.819H100.347V317.48Z" fill="#212120"/>
<path d="M110.686 317.48H100.347V327.819H110.686V317.48Z" fill="#212120"/>
<path d="M121.026 317.48H110.686V327.819H121.026V317.48Z" fill="#212120"/>
<path d="M131.366 317.48H121.026V327.819H131.366L131.366 317.48Z" fill="#212120"/>
<path d="M141.705 317.48H131.366L131.366 327.819H140.397C141.119 327.819 141.705 327.234 141.705 326.511V317.48Z" fill="#212120"/>
<path d="M162.384 317.48H152.045V326.511C152.045 327.234 152.63 327.819 153.353 327.819H161.076C161.799 327.819 162.384 327.234 162.384 326.511V317.48Z" fill="#212120"/>
<path d="M203.743 317.48H193.403V326.511C193.403 327.234 193.989 327.819 194.711 327.819H203.743V317.48Z" fill="#212120"/>
<path d="M214.083 317.48H203.743V327.819H212.775C213.497 327.819 214.083 327.234 214.083 326.511V317.48Z" fill="#212120"/>
<path d="M234.762 317.48H224.422L224.422 326.511C224.422 327.234 225.008 327.819 225.73 327.819H234.762V317.48Z" fill="#212120"/>
<path d="M245.102 317.48H234.762V327.819H245.102V317.48Z" fill="#212120"/>
<path d="M255.441 317.48H245.102V327.819H255.441V317.48Z" fill="#212120"/>
<path d="M265.781 317.48H255.441V327.819H265.781V317.48Z" fill="#212120"/>
<path d="M276.121 317.48H265.781V327.819H274.812C275.535 327.819 276.121 327.234 276.121 326.511V317.48Z" fill="#212120"/>
<path d="M296.8 317.48H286.46V326.511C286.46 327.234 287.046 327.819 287.768 327.819H295.492C296.214 327.819 296.8 327.234 296.8 326.511V317.48Z" fill="#212120"/>
<path d="M327.819 317.48H317.479V326.511C317.479 327.234 318.065 327.819 318.787 327.819H326.511C327.233 327.819 327.819 327.234 327.819 326.511V317.48Z" fill="#212120"/>
</svg>
