<svg width="24" height="24" viewBox="0 0 24 24" fill="none" xmlns="http://www.w3.org/2000/svg">
<g id="visibility_off_FILL0_wght300_GRAD0_opsz48 1">
<path id="Vector" d="M15.5039 13.1403L14.6347 12.2711C14.9911 11.1455 14.7533 10.2166 13.9212 9.4846C13.0892 8.75255 12.1917 8.54613 11.2289 8.86535L10.3597 7.99615C10.5854 7.8641 10.8379 7.76603 11.1174 7.70193C11.3969 7.63783 11.6911 7.60578 12.0001 7.60578C13.0872 7.60578 14.0081 7.98302 14.7626 8.7375C15.517 9.49198 15.8943 10.4128 15.8943 11.5C15.8943 11.8089 15.8597 12.1089 15.7904 12.4C15.7212 12.691 15.6257 12.9378 15.5039 13.1403ZM18.7001 16.3076L17.9212 15.5577C18.6866 14.9897 19.359 14.3573 19.9385 13.6606C20.518 12.9638 20.959 12.2436 21.2616 11.5C20.4283 9.69486 19.1911 8.26602 17.5501 7.21345C15.909 6.16088 14.1199 5.6346 12.1827 5.6346C11.5405 5.6346 10.8895 5.69325 10.2299 5.81055C9.57028 5.92787 9.02573 6.06858 8.59625 6.23268L7.7251 5.34615C8.2828 5.10513 8.96133 4.90386 9.76068 4.74232C10.56 4.58077 11.3385 4.5 12.0962 4.5C14.3385 4.5 16.4055 5.13429 18.2972 6.40288C20.1888 7.67146 21.577 9.37049 22.4616 11.5C22.0539 12.4577 21.5356 13.3381 20.9068 14.1413C20.2779 14.9445 19.5424 15.6666 18.7001 16.3076ZM20.1981 21.7269L16.152 17.7269C15.6392 17.9538 15.0193 18.1394 14.2924 18.2836C13.5655 18.4278 12.8014 18.5 12.0001 18.5C9.70778 18.5 7.61804 17.8657 5.73087 16.5971C3.84369 15.3285 2.44626 13.6295 1.53857 11.5C1.89756 10.6269 2.39051 9.78427 3.01742 8.9721C3.64436 8.15992 4.37 7.41729 5.19435 6.74423L2.1309 3.69038L2.93087 2.875L20.9424 20.8865L20.1981 21.7269ZM5.96933 7.5442C5.34626 7.98138 4.72158 8.57305 4.0953 9.3192C3.469 10.0654 3.01162 10.7923 2.72317 11.5C3.56676 13.3051 4.82348 14.7339 6.49335 15.7865C8.16322 16.8391 10.0462 17.3654 12.1424 17.3654C12.7629 17.3654 13.3767 17.3176 13.9837 17.2221C14.5908 17.1266 15.0277 17.0089 15.2943 16.8692L13.5212 15.0961C13.3443 15.1859 13.1081 15.258 12.8126 15.3125C12.5171 15.3669 12.2462 15.3942 12.0001 15.3942C10.9232 15.3942 10.0049 15.0195 9.24528 14.2702C8.48567 13.5208 8.10587 12.5974 8.10587 11.5C8.10587 11.25 8.13312 10.984 8.1876 10.7019C8.24208 10.4199 8.3142 10.1788 8.40395 9.97883L5.96933 7.5442Z" fill="#141516"/>
</g>
</svg>
