<svg width="24" height="24" viewBox="0 0 24 24" fill="none" xmlns="http://www.w3.org/2000/svg">
<path d="M15.5038 13.1404L14.6346 12.2712C14.991 11.1455 14.7532 10.2167 13.9212 9.48463C13.0891 8.75258 12.1917 8.54616 11.2289 8.86538L10.3597 7.99618C10.5853 7.86413 10.8379 7.76606 11.1173 7.70196C11.3968 7.63786 11.691 7.60581 12 7.60581C13.0872 7.60581 14.008 7.98305 14.7625 8.73753C15.517 9.49201 15.8942 10.4128 15.8942 11.5C15.8942 11.809 15.8596 12.109 15.7904 12.4C15.7211 12.691 15.6256 12.9378 15.5038 13.1404ZM18.7 16.3077L17.9212 15.5577C18.6865 14.9897 19.359 14.3574 19.9385 13.6606C20.5179 12.9638 20.959 12.2436 21.2615 11.5C20.4282 9.69489 19.191 8.26605 17.55 7.21348C15.909 6.16091 14.1199 5.63463 12.1827 5.63463C11.5404 5.63463 10.8894 5.69328 10.2298 5.81058C9.57022 5.9279 9.02567 6.06861 8.59619 6.23271L7.72504 5.34618C8.28274 5.10516 8.96126 4.90389 9.76061 4.74236C10.56 4.58081 11.3385 4.50003 12.0962 4.50003C14.3385 4.50003 16.4054 5.13432 18.2971 6.40291C20.1888 7.67149 21.5769 9.37052 22.4615 11.5C22.0538 12.4577 21.5356 13.3381 20.9067 14.1413C20.2779 14.9445 19.5423 15.6666 18.7 16.3077ZM20.1981 21.7269L16.1519 17.7269C15.6391 17.9538 15.0193 18.1394 14.2923 18.2836C13.5654 18.4279 12.8013 18.5 12 18.5C9.70771 18.5 7.61798 17.8657 5.73081 16.5971C3.84363 15.3285 2.4462 13.6295 1.53851 11.5C1.8975 10.6269 2.39045 9.7843 3.01736 8.97213C3.6443 8.15995 4.36994 7.41732 5.19429 6.74426L2.13084 3.69041L2.93081 2.87503L20.9423 20.8865L20.1981 21.7269ZM5.96926 7.54423C5.3462 7.98141 4.72152 8.57308 4.09524 9.31923C3.46894 10.0654 3.01156 10.7923 2.72311 11.5C3.5667 13.3051 4.82342 14.734 6.49329 15.7865C8.16316 16.8391 10.0462 17.3654 12.1423 17.3654C12.7628 17.3654 13.3766 17.3176 13.9837 17.2221C14.5907 17.1266 15.0276 17.009 15.2943 16.8692L13.5212 15.0961C13.3442 15.1859 13.108 15.258 12.8125 15.3125C12.517 15.367 12.2462 15.3942 12 15.3942C10.9231 15.3942 10.0048 15.0195 9.24521 14.2702C8.48561 13.5208 8.10581 12.5974 8.10581 11.5C8.10581 11.25 8.13306 10.984 8.18754 10.7019C8.24202 10.4199 8.31414 10.1789 8.40389 9.97886L5.96926 7.54423Z" fill="#04091F"/>
</svg>
