<svg width="24" height="24" viewBox="0 0 24 24" fill="none" xmlns="http://www.w3.org/2000/svg">
<g id="Bell">
<path id="Shape" fill-rule="evenodd" clip-rule="evenodd" d="M13 3.5C13 3.65811 12.9633 3.80764 12.8979 3.94056C16.1182 4.37863 18.6 7.13948 18.6 10.48V16.4C18.6 17.6813 18.6429 18.8629 19.7823 19.4706C20.0252 19.6001 20.1488 19.8784 20.082 20.1455C20.0153 20.4126 19.7753 20.6 19.5 20.6H12.9167C12.9703 20.7225 13 20.8578 13 21C13 21.5523 12.5522 22 12 22C11.4477 22 11 21.5523 11 21C11 20.8578 11.0296 20.7225 11.0832 20.6H4.49996C4.22464 20.6 3.98465 20.4126 3.91787 20.1455C3.8511 19.8784 3.97467 19.6001 4.2176 19.4706C5.35704 18.8629 5.39996 17.6813 5.39996 16.4V10.48C5.39996 7.13949 7.88168 4.37863 11.102 3.94056C11.0367 3.80764 11 3.65811 11 3.5C11 2.94772 11.4477 2.5 12 2.5C12.5522 2.5 13 2.94772 13 3.5ZM12 5.07998C9.01762 5.07998 6.59996 7.49764 6.59996 10.48V16.4L6.6 16.4757C6.60064 17.271 6.60157 18.4354 6.00531 19.4H17.9946C17.3983 18.4354 17.3993 17.2711 17.3999 16.4757L17.4 16.4V10.48C17.4 7.49764 14.9823 5.07998 12 5.07998Z" fill="#212120"/>
</g>
</svg>
