<svg width="24" height="24" viewBox="0 0 24 24" fill="none" xmlns="http://www.w3.org/2000/svg">
<path d="M4.44232 21.1153C4.05017 21.1153 3.71175 20.973 3.42705 20.6883C3.14235 20.4036 3 20.0652 3 19.673V5.19232C3 4.80017 3.14235 4.46175 3.42705 4.17705C3.71175 3.89235 4.05017 3.75 4.44232 3.75H6.28848V2H7.54808V3.75H15.4904V2H16.7211V3.75H18.5576C18.9498 3.75 19.2882 3.89235 19.5729 4.17705C19.8576 4.46175 20 4.80017 20 5.19232V19.673C20 20.0652 19.8576 20.4036 19.5729 20.6883C19.2882 20.973 18.9498 21.1153 18.5576 21.1153H4.44232ZM4.44232 19.9807H18.5576C18.6346 19.9807 18.7051 19.9487 18.7692 19.8846C18.8333 19.8205 18.8654 19.7499 18.8654 19.673V9.74038H4.1346V19.673C4.1346 19.7499 4.16665 19.8205 4.23075 19.8846C4.29487 19.9487 4.36539 19.9807 4.44232 19.9807ZM4.1346 8.6058H18.8654V5.19232C18.8654 5.11539 18.8333 5.04487 18.7692 4.98075C18.7051 4.91665 18.6346 4.8846 18.5576 4.8846H4.44232C4.36539 4.8846 4.29487 4.91665 4.23075 4.98075C4.16665 5.04487 4.1346 5.11539 4.1346 5.19232V8.6058ZM11.5 13.6923C11.2551 13.6923 11.0465 13.6061 10.874 13.4336C10.7016 13.2612 10.6154 13.0525 10.6154 12.8077C10.6154 12.5628 10.7016 12.3542 10.874 12.1817C11.0465 12.0093 11.2551 11.9231 11.5 11.9231C11.7448 11.9231 11.9535 12.0093 12.1259 12.1817C12.2984 12.3542 12.3846 12.5628 12.3846 12.8077C12.3846 13.0525 12.2984 13.2612 12.1259 13.4336C11.9535 13.6061 11.7448 13.6923 11.5 13.6923ZM7.49998 13.6923C7.25511 13.6923 7.04646 13.6061 6.87403 13.4336C6.70159 13.2612 6.61538 13.0525 6.61538 12.8077C6.61538 12.5628 6.70159 12.3542 6.87403 12.1817C7.04646 12.0093 7.25511 11.9231 7.49998 11.9231C7.74484 11.9231 7.95349 12.0093 8.12593 12.1817C8.29836 12.3542 8.38458 12.5628 8.38458 12.8077C8.38458 13.0525 8.29836 13.2612 8.12593 13.4336C7.95349 13.6061 7.74484 13.6923 7.49998 13.6923ZM15.5 13.6923C15.2551 13.6923 15.0465 13.6061 14.874 13.4336C14.7016 13.2612 14.6154 13.0525 14.6154 12.8077C14.6154 12.5628 14.7016 12.3542 14.874 12.1817C15.0465 12.0093 15.2551 11.9231 15.5 11.9231C15.7448 11.9231 15.9535 12.0093 16.1259 12.1817C16.2984 12.3542 16.3846 12.5628 16.3846 12.8077C16.3846 13.0525 16.2984 13.2612 16.1259 13.4336C15.9535 13.6061 15.7448 13.6923 15.5 13.6923ZM11.5 17.6154C11.2551 17.6154 11.0465 17.5291 10.874 17.3567C10.7016 17.1843 10.6154 16.9756 10.6154 16.7308C10.6154 16.4859 10.7016 16.2772 10.874 16.1048C11.0465 15.9324 11.2551 15.8461 11.5 15.8461C11.7448 15.8461 11.9535 15.9324 12.1259 16.1048C12.2984 16.2772 12.3846 16.4859 12.3846 16.7308C12.3846 16.9756 12.2984 17.1843 12.1259 17.3567C11.9535 17.5291 11.7448 17.6154 11.5 17.6154ZM7.49998 17.6154C7.25511 17.6154 7.04646 17.5291 6.87403 17.3567C6.70159 17.1843 6.61538 16.9756 6.61538 16.7308C6.61538 16.4859 6.70159 16.2772 6.87403 16.1048C7.04646 15.9324 7.25511 15.8461 7.49998 15.8461C7.74484 15.8461 7.95349 15.9324 8.12593 16.1048C8.29836 16.2772 8.38458 16.4859 8.38458 16.7308C8.38458 16.9756 8.29836 17.1843 8.12593 17.3567C7.95349 17.5291 7.74484 17.6154 7.49998 17.6154ZM15.5 17.6154C15.2551 17.6154 15.0465 17.5291 14.874 17.3567C14.7016 17.1843 14.6154 16.9756 14.6154 16.7308C14.6154 16.4859 14.7016 16.2772 14.874 16.1048C15.0465 15.9324 15.2551 15.8461 15.5 15.8461C15.7448 15.8461 15.9535 15.9324 16.1259 16.1048C16.2984 16.2772 16.3846 16.4859 16.3846 16.7308C16.3846 16.9756 16.2984 17.1843 16.1259 17.3567C15.9535 17.5291 15.7448 17.6154 15.5 17.6154Z" fill="#898989"/>
</svg>
