<svg width="24" height="24" viewBox="0 0 24 24" fill="none" xmlns="http://www.w3.org/2000/svg">
<path d="M8.42361 19.25C7.48882 19.25 6.69761 18.9231 6.05001 18.2693C5.40239 17.6155 5.07858 16.8259 5.07858 15.9005V7.90581C4.54524 7.70771 4.10715 7.4031 3.76429 6.99198C3.42143 6.58085 3.25 6.11815 3.25 5.60386C3.25 4.9445 3.47969 4.38735 3.93908 3.9324C4.39846 3.47747 4.95318 3.25 5.60324 3.25C6.2533 3.25 6.80602 3.47853 7.26142 3.93558C7.71679 4.39263 7.94448 4.94762 7.94448 5.60054C7.94448 6.10983 7.77305 6.57184 7.43019 6.98656C7.08734 7.4013 6.64924 7.70771 6.11591 7.90581V15.9005C6.11591 16.5364 6.34065 17.0807 6.79015 17.5335C7.23964 17.9863 7.78851 18.2127 8.43676 18.2127C9.085 18.2127 9.62949 17.9863 10.0702 17.5335C10.511 17.0807 10.7313 16.5364 10.7313 15.9005V6.59065C10.7313 5.65878 11.0551 4.86904 11.7028 4.22143C12.3504 3.57381 13.1416 3.25 14.0764 3.25C15.0112 3.25 15.8024 3.57381 16.45 4.22143C17.0976 4.86904 17.4214 5.65878 17.4214 6.59065V14.5942C17.9548 14.7923 18.3929 15.0973 18.7357 15.5091C19.0786 15.921 19.25 16.3845 19.25 16.8998C19.25 17.5463 19.0219 18.0996 18.5657 18.5598C18.1095 19.0199 17.5555 19.25 16.9038 19.25C16.2584 19.25 15.7057 19.0199 15.2456 18.5598C14.7856 18.0996 14.5555 17.5463 14.5555 16.8998C14.5555 16.3842 14.7269 15.9168 15.0698 15.4975C15.4127 15.0781 15.8508 14.7771 16.3841 14.5942V6.59065C16.3841 5.95342 16.1593 5.41023 15.7099 4.96107C15.2604 4.51191 14.7153 4.28733 14.0747 4.28733C13.434 4.28733 12.8896 4.51191 12.4412 4.96107C11.9929 5.41023 11.7687 5.95342 11.7687 6.59065V15.9005C11.7687 16.8259 11.4449 17.6155 10.7972 18.2693C10.1496 18.9231 9.35841 19.25 8.42361 19.25ZM5.60868 6.90715C5.96795 6.90715 6.27418 6.77675 6.52736 6.51593C6.78055 6.25513 6.90715 5.94509 6.90715 5.58582C6.90715 5.22654 6.78151 4.92031 6.53021 4.66712C6.27894 4.41393 5.96795 4.28733 5.59725 4.28733C5.24559 4.28733 4.93935 4.41298 4.67855 4.66427C4.41774 4.91554 4.28733 5.22654 4.28733 5.59725C4.28733 5.9489 4.41774 6.25513 4.67855 6.51593C4.93935 6.77675 5.2494 6.90715 5.60868 6.90715ZM16.9142 18.2127C17.2735 18.2127 17.5797 18.0823 17.8329 17.8214C18.0861 17.5606 18.2127 17.2506 18.2127 16.8913C18.2127 16.532 18.087 16.2258 17.8357 15.9726C17.5845 15.7194 17.2735 15.5928 16.9027 15.5928C16.5511 15.5928 16.2449 15.7185 15.9841 15.9698C15.7233 16.2211 15.5928 16.532 15.5928 16.9027C15.5928 17.2544 15.7233 17.5606 15.9841 17.8214C16.2449 18.0823 16.5549 18.2127 16.9142 18.2127Z" fill="#212120"/>
</svg>
