<svg width="24" height="24" viewBox="0 0 24 24" fill="none" xmlns="http://www.w3.org/2000/svg">
<path d="M9.4097 3.07825V2H14.7463V3.07825H9.4097ZM11.5389 13.7076H12.6171V8.54464H11.5389V13.7076ZM12.078 21.23C10.9668 21.23 9.92142 21.0165 8.94184 20.5894C7.96225 20.1624 7.10571 19.5836 6.37223 18.8532C5.63876 18.1228 5.06003 17.2663 4.63602 16.2836C4.21201 15.301 4 14.2556 4 13.1474C4 12.0393 4.21201 10.9955 4.63602 10.0159C5.06003 9.03627 5.63876 8.17974 6.37223 7.44627C7.10571 6.71279 7.96225 6.13404 8.94184 5.71004C9.92142 5.28604 10.9668 5.07404 12.078 5.07404C13.0905 5.07404 14.0488 5.24918 14.9528 5.59947C15.8569 5.94977 16.664 6.43866 17.3744 7.06613L18.4673 5.9641L19.2275 6.72436L18.1255 7.82639C18.7079 8.45996 19.1919 9.2175 19.5775 10.099C19.9632 10.9805 20.156 11.9982 20.156 13.152C20.156 14.2571 19.944 15.301 19.52 16.2836C19.096 17.2663 18.5172 18.1228 17.7838 18.8532C17.0503 19.5836 16.1937 20.1624 15.2141 20.5894C14.2346 21.0165 13.1892 21.23 12.078 21.23ZM12.0767 20.1518C14.0209 20.1518 15.6738 19.4714 17.0354 18.1107C18.3969 16.75 19.0777 15.0975 19.0777 13.1533C19.0777 11.2091 18.3974 9.55622 17.0367 8.19465C15.676 6.83309 14.0235 6.15231 12.0793 6.15231C10.1351 6.15231 8.48218 6.83266 7.12061 8.19337C5.75905 9.55407 5.07827 11.2065 5.07827 13.1507C5.07827 15.0949 5.75862 16.7478 7.11933 18.1094C8.48003 19.471 10.1325 20.1518 12.0767 20.1518Z" fill="black"/>
</svg>
