<svg width="25" height="24" viewBox="0 0 25 24" fill="none" xmlns="http://www.w3.org/2000/svg">
<path d="M9.6923 2.38457V1.25H15.3077V2.38457H9.6923ZM11.9327 13.5692H13.0673V8.13653H11.9327V13.5692ZM12.5 21.4846C11.3307 21.4846 10.2308 21.2599 9.2 20.8105C8.16923 20.3612 7.26795 19.7522 6.49615 18.9836C5.72437 18.215 5.1154 17.3137 4.66925 16.2798C4.22308 15.2458 4 14.1458 4 12.9798C4 11.8138 4.22308 10.7154 4.66925 9.6846C5.1154 8.65383 5.72437 7.75256 6.49615 6.98078C7.26795 6.20898 8.16923 5.6 9.2 5.15385C10.2308 4.7077 11.3307 4.48463 12.5 4.48463C13.5654 4.48463 14.5737 4.66892 15.525 5.0375C16.4762 5.4061 17.3256 5.92053 18.073 6.58078L19.223 5.42118L20.023 6.22115L18.8634 7.38075C19.4762 8.04742 19.9855 8.84453 20.3913 9.7721C20.7971 10.6997 21 11.7705 21 12.9846C21 14.1474 20.7769 15.2458 20.3307 16.2798C19.8846 17.3137 19.2756 18.215 18.5038 18.9836C17.732 19.7522 16.8307 20.3612 15.8 20.8105C14.7692 21.2599 13.6692 21.4846 12.5 21.4846ZM12.4986 20.35C14.5444 20.35 16.2836 19.6341 17.7163 18.2023C19.149 16.7705 19.8654 15.0317 19.8654 12.986C19.8654 10.9402 19.1495 9.20095 17.7177 7.76825C16.2859 6.33557 14.5471 5.61923 12.5013 5.61923C10.4556 5.61923 8.71633 6.33512 7.28363 7.7669C5.85094 9.19868 5.1346 10.9375 5.1346 12.9832C5.1346 15.029 5.85049 16.7682 7.28227 18.2009C8.71406 19.6336 10.4528 20.35 12.4986 20.35Z" fill="#212120"/>
</svg>
