<svg width="25" height="24" viewBox="0 0 25 24" fill="none" xmlns="http://www.w3.org/2000/svg">
<path d="M16.0526 16.3721L16.8532 15.5716L13.0874 11.7821V7.03579H12.0121V12.2179C12.0168 12.2226 16.0526 16.3721 16.0526 16.3721ZM12.5 21C11.2637 21 10.1032 20.7632 9.00895 20.2895C7.91474 19.8158 6.96263 19.1716 6.14316 18.3521C5.32368 17.5326 4.67947 16.5805 4.20579 15.4863C3.73684 14.4016 3.5 13.2363 3.5 12C3.5 10.7637 3.73684 9.60316 4.21053 8.50895C4.68421 7.41474 5.32842 6.46263 6.14789 5.64316C6.96737 4.82368 7.91947 4.17947 9.01368 3.70579C10.0984 3.23684 11.2637 3 12.5 3C13.7363 3 14.8968 3.23684 15.9911 3.71053C17.0853 4.18421 18.0374 4.82842 18.8568 5.64789C19.6763 6.46737 20.3205 7.41947 20.7942 8.51368C21.2679 9.60316 21.5047 10.7684 21.5047 12.0047C21.5047 13.2411 21.2679 14.4016 20.7942 15.4958C20.3205 16.59 19.6763 17.5421 18.8568 18.3616C18.0374 19.1811 17.0853 19.8253 15.9911 20.2989C14.9016 20.7632 13.7363 21 12.5 21ZM12.5 19.9247C14.6789 19.9247 16.5453 19.1479 18.0989 17.5989C19.6526 16.0453 20.4247 14.1837 20.4247 12C20.4247 9.81632 19.6479 7.95474 18.0989 6.40105C16.5453 4.85211 14.6789 4.07526 12.5 4.07526C10.3211 4.07526 8.45474 4.85211 6.90105 6.40105C5.34737 7.95 4.57526 9.82105 4.57526 12C4.57526 14.1789 5.35211 16.0453 6.90105 17.5989C8.45 19.1526 10.3211 19.9247 12.5 19.9247Z" fill="#A6A6A6"/>
</svg>
