<svg width="24" height="24" viewBox="0 0 24 24" fill="none" xmlns="http://www.w3.org/2000/svg">
<g id="Check Circled">
<path id="Shape" fill-rule="evenodd" clip-rule="evenodd" d="M11.9999 1.40332C6.14756 1.40332 1.40332 6.14756 1.40332 11.9999C1.40332 17.8521 6.14755 22.5964 11.9999 22.5964C17.8521 22.5964 22.5964 17.8521 22.5964 11.9999C22.5964 6.14755 17.8521 1.40332 11.9999 1.40332ZM2.92332 11.9999C2.92332 6.98703 6.98703 2.92332 11.9999 2.92332C17.0126 2.92332 21.0764 6.98703 21.0764 11.9999C21.0764 17.0126 17.0126 21.0764 11.9999 21.0764C6.98703 21.0764 2.92332 17.0126 2.92332 11.9999ZM16.2543 8.86044C16.5086 8.49911 16.4218 8.00007 16.0604 7.7458C15.6991 7.49153 15.2001 7.57832 14.9458 7.93965L10.4316 14.3545L8.57089 12.4593C8.26135 12.1441 7.75484 12.1394 7.43957 12.449C7.1243 12.7585 7.11965 13.265 7.42919 13.5803L9.96253 16.1605C10.1289 16.3299 10.3619 16.4167 10.5985 16.3974C10.8352 16.3781 11.051 16.2546 11.1876 16.0604L16.2543 8.86044Z" fill="#212120"/>
</g>
</svg>
