<svg width="30" height="30" viewBox="0 0 30 30" fill="none" xmlns="http://www.w3.org/2000/svg">
<path d="M9.90625 11.7422C9.78125 11.6172 9.69531 11.4661 9.64844 11.2891C9.60677 11.112 9.60677 10.9349 9.64844 10.7578C9.6901 10.5755 9.77865 10.4167 9.91406 10.2812C10.0443 10.151 10.1979 10.0651 10.375 10.0234C10.5573 9.97656 10.737 9.97656 10.9141 10.0234C11.0964 10.0651 11.25 10.1484 11.375 10.2734L20.0938 18.9922C20.224 19.1224 20.3099 19.276 20.3516 19.4531C20.3932 19.6302 20.3906 19.8099 20.3438 19.9922C20.3021 20.1693 20.2135 20.3229 20.0781 20.4531C19.9479 20.5885 19.7943 20.6797 19.6172 20.7266C19.4401 20.7682 19.263 20.7682 19.0859 20.7266C18.9089 20.6797 18.7552 20.5938 18.625 20.4688L9.90625 11.7422ZM9.90625 19L18.625 10.2812C18.7552 10.151 18.9089 10.0651 19.0859 10.0234C19.263 9.97656 19.4401 9.97656 19.6172 10.0234C19.7943 10.0651 19.9479 10.1536 20.0781 10.2891C20.2135 10.4193 20.3021 10.5755 20.3438 10.7578C20.3906 10.9349 20.3932 11.112 20.3516 11.2891C20.3099 11.4661 20.224 11.6198 20.0938 11.75L11.375 20.4688C11.25 20.5938 11.0964 20.6797 10.9141 20.7266C10.737 20.7682 10.5573 20.7682 10.375 20.7266C10.1979 20.6797 10.0443 20.5911 9.91406 20.4609C9.77865 20.3255 9.6901 20.1693 9.64844 19.9922C9.60677 19.8099 9.60677 19.6302 9.64844 19.4531C9.69531 19.276 9.78125 19.125 9.90625 19Z" fill="#212120"/>
</svg>
