<svg width="18" height="19" viewBox="0 0 18 19" fill="none" xmlns="http://www.w3.org/2000/svg">
<path fill-rule="evenodd" clip-rule="evenodd" d="M17.9748 9.50694C17.9748 8.86875 17.9175 8.25511 17.8111 7.66602H9.33459V11.1474H14.1783C13.9697 12.2724 13.3356 13.2256 12.3824 13.8638V16.122H15.2911C16.9929 14.5552 17.9748 12.2479 17.9748 9.50694Z" fill="#4285F4"/>
<path fill-rule="evenodd" clip-rule="evenodd" d="M9.3338 18.3018C11.7639 18.3018 13.8012 17.4959 15.2903 16.1213L12.3816 13.8631C11.5757 14.4031 10.5447 14.7222 9.3338 14.7222C6.98966 14.7222 5.00552 13.139 4.29778 11.0117H1.29089V13.3436C2.77184 16.2849 5.81554 18.3018 9.3338 18.3018Z" fill="#34A853"/>
<path fill-rule="evenodd" clip-rule="evenodd" d="M4.29816 11.0116C4.11816 10.4716 4.01588 9.89481 4.01588 9.30162C4.01588 8.70843 4.11816 8.13161 4.29816 7.5916V5.25977H1.29128C0.681719 6.47478 0.333984 7.84933 0.333984 9.30162C0.333984 10.7539 0.681719 12.1285 1.29128 13.3435L4.29816 11.0116Z" fill="#FBBC05"/>
<path fill-rule="evenodd" clip-rule="evenodd" d="M9.33404 3.88231C10.6554 3.88231 11.8418 4.33641 12.7746 5.22823L15.356 2.64685C13.7973 1.19456 11.76 0.302734 9.33404 0.302734C5.81578 0.302734 2.77208 2.31957 1.29114 5.26096L4.29802 7.5928C5.00576 5.46551 6.9899 3.88231 9.33404 3.88231Z" fill="#EA4335"/>
</svg>
