<svg width="24" height="24" viewBox="0 0 24 24" fill="none" xmlns="http://www.w3.org/2000/svg">
<g id="arrow_outward_FILL0_wght300_GRAD0_opsz48 3">
<path id="Vector" d="M5.25002 19C4.91015 19 4.61685 18.8766 4.37011 18.6299C4.12337 18.3831 4 18.0898 4 17.75V7.25002C4 6.91015 4.12337 6.61685 4.37011 6.37011C4.61685 6.12337 4.91015 6 5.25002 6H19.2167C19.5565 6 19.8498 6.12337 20.0966 6.37011C20.3433 6.61685 20.4667 6.91015 20.4667 7.25002V17.75C20.4667 18.0898 20.3433 18.3831 20.0966 18.6299C19.8498 18.8766 19.5565 19 19.2167 19H5.25002ZM12.2333 12.6316L4.98332 7.83331V17.75C4.98332 17.8278 5.00833 17.8917 5.05833 17.9417C5.10834 17.9917 5.17224 18.0167 5.25002 18.0167H19.2167C19.2944 18.0167 19.3583 17.9917 19.4083 17.9417C19.4584 17.8917 19.4834 17.8278 19.4834 17.75V7.83331L12.2333 12.6316ZM12.2333 11.5983L19.2884 6.98332H5.19999L12.2333 11.5983ZM4.98332 7.83331V6.98332V17.75C4.98332 17.8278 5.00833 17.8917 5.05833 17.9417C5.10834 17.9917 5.17224 18.0167 5.25002 18.0167H4.98332V7.83331Z" fill="white"/>
</g>
</svg>
