<svg width="24" height="24" viewBox="0 0 24 24" fill="none" xmlns="http://www.w3.org/2000/svg">
<g id="&#240;&#159;&#166;&#134; icon &#34;biking&#34;">
<path id="Vector" d="M4.45746 15.0856C3.57586 15.0856 2.71405 15.347 1.98103 15.8368C1.248 16.3266 0.67668 17.0227 0.339305 17.8372C0.00193134 18.6517 -0.0863411 19.548 0.0856507 20.4126C0.257643 21.2773 0.682174 22.0715 1.30556 22.6949C1.92895 23.3183 2.72319 23.7428 3.58785 23.9148C4.45251 24.0868 5.34876 23.9985 6.16325 23.6612C6.97774 23.3238 7.6739 22.7525 8.16369 22.0194C8.65348 21.2864 8.91491 20.4246 8.91491 19.543C8.91491 18.9576 8.79961 18.378 8.57561 17.8372C8.3516 17.2964 8.02326 16.805 7.60935 16.3911C7.19544 15.9772 6.70405 15.6489 6.16325 15.4249C5.62245 15.2008 5.04282 15.0856 4.45746 15.0856ZM4.45746 22.2175C3.9285 22.2175 3.41141 22.0606 2.9716 21.7667C2.53178 21.4729 2.18899 21.0552 1.98657 20.5665C1.78414 20.0778 1.73118 19.54 1.83437 19.0212C1.93757 18.5024 2.19229 18.0259 2.56632 17.6519C2.94035 17.2778 3.4169 17.0231 3.93569 16.9199C4.45449 16.8167 4.99224 16.8697 5.48093 17.0721C5.96963 17.2745 6.38732 17.6173 6.6812 18.0571C6.97507 18.497 7.13193 19.014 7.13193 19.543C7.13098 20.252 6.84891 20.9317 6.34755 21.4331C5.8462 21.9345 5.16648 22.2165 4.45746 22.2175ZM18.7213 15.0856C17.8397 15.0856 16.9779 15.347 16.2449 15.8368C15.5119 16.3266 14.9405 17.0227 14.6032 17.8372C14.2658 18.6517 14.1775 19.548 14.3495 20.4126C14.5215 21.2773 14.946 22.0715 15.5694 22.6949C16.1928 23.3183 16.987 23.7428 17.8517 23.9148C18.7164 24.0868 19.6126 23.9985 20.4271 23.6612C21.2416 23.3238 21.9378 22.7525 22.4275 22.0194C22.9173 21.2864 23.1788 20.4246 23.1788 19.543C23.1788 18.3608 22.7091 17.227 21.8732 16.3911C21.0373 15.5552 19.9035 15.0856 18.7213 15.0856ZM18.7213 22.2175C18.1923 22.2175 17.6753 22.0606 17.2355 21.7667C16.7956 21.4729 16.4528 21.0552 16.2504 20.5665C16.048 20.0778 15.995 19.54 16.0982 19.0212C16.2014 18.5024 16.4561 18.0259 16.8302 17.6519C17.2042 17.2778 17.6807 17.0231 18.1995 16.9199C18.7183 16.8167 19.2561 16.8697 19.7448 17.0721C20.2335 17.2745 20.6512 17.6173 20.9451 18.0571C21.2389 18.497 21.3958 19.014 21.3958 19.543C21.3948 20.252 21.1128 20.9317 20.6114 21.4331C20.11 21.9345 19.4303 22.2165 18.7213 22.2175ZM17.6515 3.49617C17.6515 3.98987 17.5051 4.47248 17.2308 4.88297C16.9566 5.29347 16.5667 5.61341 16.1106 5.80234C15.6545 5.99127 15.1526 6.0407 14.6684 5.94438C14.1842 5.84807 13.7394 5.61033 13.3903 5.26123C13.0412 4.91214 12.8035 4.46736 12.7071 3.98315C12.6108 3.49894 12.6603 2.99705 12.8492 2.54093C13.0381 2.08481 13.3581 1.69496 13.7685 1.42068C14.179 1.1464 14.6616 1 15.1553 1C15.8174 1 16.4523 1.26299 16.9204 1.73111C17.3885 2.19924 17.6515 2.83415 17.6515 3.49617ZM19.2134 12.4004C19.2312 13.1207 18.5412 13.2972 17.8334 13.2972L13.7022 13.3026L12.3489 9.89351L8.83824 12.6054L11.9228 14.679C12.0817 14.8014 12.2123 14.9567 12.3055 15.1343C12.3988 15.3119 12.4525 15.5075 12.463 15.7078C12.463 15.7078 12.4809 15.5901 12.4809 22.3369C12.4809 23.0751 12.3792 23.6029 11.6429 23.6029C10.9065 23.6029 10.6979 23.0733 10.6979 22.3352V16.0412L5.61104 13.3026C4.09016 12.4218 5.57539 10.8278 5.57539 10.8278L9.75469 7.17268C10.3288 6.64754 11.0644 6.33318 11.8408 6.28119C12.1921 6.30971 12.5304 6.42733 12.8237 6.62294C13.1169 6.81855 13.3555 7.08568 13.5168 7.39912L14.8184 11.5196H17.8352C18.4824 11.5196 19.2009 11.8209 19.2134 12.4004Z" fill="#212120"/>
</g>
</svg>
