<svg width="24" height="25" viewBox="0 0 24 25" fill="none" xmlns="http://www.w3.org/2000/svg">
<g id="Icon_Training">
<path id="Shape" fill-rule="evenodd" clip-rule="evenodd" d="M6 15.0854L6 9.5C6 7.84315 7.34315 6.5 9 6.5C10.6569 6.5 12 7.84315 12 9.5L12 12L12 14.25C12 15.4926 13.0074 16.5 14.25 16.5C15.4926 16.5 16.5 15.4926 16.5 14.25L16.5 7.70711L15.3536 8.85355C15.1583 9.04882 14.8417 9.04882 14.6464 8.85355C14.4512 8.65829 14.4512 8.34171 14.6464 8.14645L16.6464 6.14645C16.8417 5.95118 17.1583 5.95118 17.3536 6.14645L19.3536 8.14645C19.5488 8.34171 19.5488 8.65829 19.3536 8.85355C19.1583 9.04882 18.8417 9.04882 18.6464 8.85355L17.5 7.70711L17.5 14.25C17.5 16.0449 16.0449 17.5 14.25 17.5C12.4551 17.5 11 16.0449 11 14.25L11 12L11 9.5C11 8.39543 10.1046 7.5 9 7.5C7.89543 7.5 7 8.39543 7 9.5L7 15.0854C7.5826 15.2913 8 15.8469 8 16.5C8 17.3284 7.32843 18 6.5 18C5.67157 18 5 17.3284 5 16.5C5 15.8469 5.4174 15.2913 6 15.0854Z" fill="#212120"/>
</g>
</svg>
