<svg width="24" height="24" viewBox="0 0 24 24" fill="none" xmlns="http://www.w3.org/2000/svg">
<g id="&#240;&#159;&#166;&#134; icon &#34;running&#34;">
<path id="Vector" d="M10.7034 4.35088C10.2881 4.35088 9.88208 4.22772 9.53673 3.99697C9.19139 3.76621 8.92223 3.43824 8.76329 3.05451C8.60434 2.67079 8.56275 2.24855 8.64378 1.84119C8.72481 1.43383 8.92482 1.05965 9.21851 0.765956C9.5122 0.472265 9.88638 0.27226 10.2937 0.191231C10.7011 0.110202 11.1233 0.151789 11.5071 0.310733C11.8908 0.469677 12.2188 0.738839 12.4495 1.08418C12.6803 1.42953 12.8034 1.83554 12.8034 2.25088C12.8034 2.52666 12.7491 2.79973 12.6436 3.05451C12.538 3.3093 12.3834 3.5408 12.1884 3.7358C11.9934 3.93081 11.7619 4.08549 11.5071 4.19103C11.2523 4.29656 10.9792 4.35088 10.7034 4.35088ZM1.80393 6.05188L2.45343 10.7244C2.45343 11.5194 4.26543 11.2734 4.23843 10.6689L3.79893 7.62088L6.75543 7.08088L5.63343 12.6159L9.68493 17.3154L8.03343 22.3374C7.96585 22.4616 7.92359 22.5979 7.90912 22.7386C7.89465 22.8792 7.90825 23.0214 7.94914 23.1567C7.99002 23.2921 8.05737 23.418 8.14729 23.5271C8.23721 23.6362 8.34789 23.7264 8.47293 23.7924C9.05943 24.0144 9.73593 23.5599 10.1424 22.7544C10.2024 22.6374 12.2859 16.9869 12.2859 16.9869L9.11343 13.3464L10.3284 7.38088C10.6209 5.96038 8.75343 5.28688 7.07343 4.69588L1.80393 6.05188ZM0.0234317 19.3404C0.0894317 19.9434 0.894932 20.2914 1.54143 20.1774L5.31243 18.8454L7.10943 16.6254L5.80743 15.1149L4.44843 16.8264L0.812431 18.0009C0.538568 18.0871 0.306358 18.2717 0.160643 18.5191C0.0149276 18.7665 -0.0339559 19.0591 0.0234317 19.3404ZM14.9724 8.78338C14.9488 8.51968 14.8215 8.27614 14.6184 8.10626C14.4154 7.93639 14.1532 7.85406 13.8894 7.87738L11.5824 8.74738L11.1624 10.8069L14.4939 9.71488C14.6523 9.61973 14.781 9.48228 14.8655 9.31798C14.9501 9.15369 14.9871 8.96756 14.9724 8.78338Z" fill="#212120"/>
</g>
</svg>
