<svg width="24" height="24" viewBox="0 0 24 24" fill="none" xmlns="http://www.w3.org/2000/svg">
<g id="Icon_Training">
<path id="Union" fill-rule="evenodd" clip-rule="evenodd" d="M6.5 8.60059C6.5 8.32444 6.27614 8.10059 6 8.10059C5.72386 8.10059 5.5 8.32444 5.5 8.60059V9.60059C5.5 9.32444 5.27614 9.10059 5 9.10059C4.72386 9.10059 4.5 9.32444 4.5 9.60059V10.6006C4.5 10.3244 4.27614 10.1006 4 10.1006C3.72386 10.1006 3.5 10.3244 3.5 10.6006V12.1006H3C2.72386 12.1006 2.5 12.3244 2.5 12.6006C2.5 12.8767 2.72386 13.1006 3 13.1006H3.5V14.6006C3.5 14.8767 3.72386 15.1006 4 15.1006C4.27614 15.1006 4.5 14.8767 4.5 14.6006V15.6006C4.5 15.8767 4.72386 16.1006 5 16.1006C5.27614 16.1006 5.5 15.8767 5.5 15.6006V16.6006C5.5 16.8767 5.72386 17.1006 6 17.1006C6.27614 17.1006 6.5 16.8767 6.5 16.6006V13.1006H17.5V16.6006C17.5 16.8767 17.7239 17.1006 18 17.1006C18.2761 17.1006 18.5 16.8767 18.5 16.6006V15.6006C18.5 15.8767 18.7239 16.1006 19 16.1006C19.2761 16.1006 19.5 15.8767 19.5 15.6006V14.6006C19.5 14.8767 19.7239 15.1006 20 15.1006C20.2761 15.1006 20.5 14.8767 20.5 14.6006V13.1006H21C21.2761 13.1006 21.5 12.8767 21.5 12.6006C21.5 12.3244 21.2761 12.1006 21 12.1006H20.5V10.6006C20.5 10.3244 20.2761 10.1006 20 10.1006C19.7239 10.1006 19.5 10.3244 19.5 10.6006V9.60059C19.5 9.32444 19.2761 9.10059 19 9.10059C18.7239 9.10059 18.5 9.32444 18.5 9.60059V8.60059C18.5 8.32444 18.2761 8.10059 18 8.10059C17.7239 8.10059 17.5 8.32444 17.5 8.60059V12.1006H6.5V8.60059Z" fill="#212120"/>
</g>
</svg>
