<svg width="24" height="24" viewBox="0 0 24 24" fill="none" xmlns="http://www.w3.org/2000/svg">
<g id="&#240;&#159;&#166;&#134; icon &#34;walking&#34;">
<path id="Vector" d="M8.01802 2.71133C8.01802 3.12667 7.89486 3.53268 7.66411 3.87803C7.43336 4.22337 7.10539 4.49253 6.72166 4.65147C6.33794 4.81042 5.9157 4.85201 5.50834 4.77098C5.10098 4.68995 4.72679 4.48994 4.4331 4.19625C4.13941 3.90256 3.93941 3.52838 3.85838 3.12102C3.77735 2.71366 3.81894 2.29142 3.97788 1.90769C4.13682 1.52397 4.40599 1.19599 4.75133 0.965242C5.09667 0.734491 5.50269 0.611328 5.91803 0.611328C6.47498 0.611328 7.00912 0.832578 7.40295 1.2264C7.79678 1.62023 8.01802 2.15437 8.01802 2.71133ZM7.89803 7.65728C7.82603 6.26978 5.93003 6.09278 4.22453 5.95478C3.20453 7.68278 1.54703 10.8958 0.849526 12.2593C0.760974 12.4338 0.741281 12.6353 0.794353 12.8237C0.847425 13.0121 0.969383 13.1736 1.13603 13.2763C1.2274 13.3331 1.32932 13.3708 1.43566 13.3872C1.542 13.4036 1.65055 13.3984 1.7548 13.3718C1.85905 13.3451 1.95684 13.2977 2.04228 13.2323C2.12773 13.1669 2.19908 13.0849 2.25203 12.9913L4.52453 8.97428L4.80353 13.6588L8.55053 18.1348L10.3805 23.2888C10.5147 23.5349 10.7284 23.7283 10.9867 23.8372C11.245 23.9462 11.5326 23.9644 11.8025 23.8888C12.0852 23.7675 12.3152 23.5493 12.4513 23.2735C12.5875 22.9977 12.6207 22.6824 12.545 22.3843C12.515 22.2613 10.835 17.1433 10.835 17.1433L8.21303 13.4938L7.89803 7.65728ZM5.93603 17.3473L4.18853 15.2593L3.55703 17.2423L0.246527 21.8713C0.147522 21.9989 0.0759026 22.1456 0.036143 22.3021C-0.00361664 22.4586 -0.0106616 22.6217 0.0154488 22.7811C0.0415593 22.9405 0.100264 23.0928 0.187893 23.2284C0.275523 23.3641 0.390195 23.4803 0.524741 23.5696C0.659288 23.659 0.810817 23.7196 0.969861 23.7478C1.1289 23.7759 1.29204 23.7709 1.44908 23.7332C1.60612 23.6954 1.75368 23.6257 1.88255 23.5283C2.01141 23.4309 2.11881 23.308 2.19803 23.1673L5.68403 18.5383L5.93603 17.3473ZM12.7925 12.4783C12.9701 12.2963 13.0682 12.0514 13.0654 11.7972C13.0626 11.543 12.9591 11.3003 12.7775 11.1223L9.46703 8.86178L9.58552 11.0323L11.816 12.7108C11.9845 12.7671 12.1654 12.7751 12.3382 12.7341C12.511 12.693 12.6674 12.6044 12.7925 12.4783Z" fill="#212120"/>
</g>
</svg>
