<svg width="69" height="68" viewBox="0 0 69 68" fill="none" xmlns="http://www.w3.org/2000/svg">
<path d="M5.78516 58.0833L34.4997 8.50024L63.2143 58.0833H5.78516ZM11.3536 54.8686H57.6459L34.4997 14.9296L11.3536 54.8686ZM34.7142 50.6131C35.2196 50.6131 35.639 50.4422 35.9722 50.1003C36.3055 49.7584 36.4721 49.3348 36.4721 48.8294C36.4721 48.324 36.3012 47.9047 35.9593 47.5714C35.6174 47.2382 35.1938 47.0715 34.6884 47.0715C34.183 47.0715 33.7637 47.2425 33.4304 47.5843C33.0971 47.9262 32.9305 48.3498 32.9305 48.8552C32.9305 49.3606 33.1014 49.7799 33.4433 50.1132C33.7852 50.4465 34.2088 50.6131 34.7142 50.6131ZM33.094 43.677H36.3087V28.2462H33.094V43.677Z" fill="#E90000"/>
</svg>
