<svg width="85" height="84" viewBox="0 0 85 84" fill="none" xmlns="http://www.w3.org/2000/svg">
<circle cx="42.5" cy="42" r="42" fill="#F94C4C"/>
<path d="M42.5 69.0364C41.9987 69.0364 41.5029 68.9362 41.0124 68.7359C40.5219 68.5355 40.0715 68.2434 39.6612 67.8595L16.6405 44.8388C16.2566 44.4285 15.9645 43.9781 15.7641 43.4876C15.5638 42.9971 15.4636 42.5013 15.4636 42C15.4636 41.4987 15.5638 40.9985 15.7641 40.4992C15.9645 40 16.2566 39.5449 16.6405 39.134L39.6612 16.1405C40.0715 15.7398 40.5219 15.4435 41.0124 15.2516C41.5029 15.0596 41.9987 14.9636 42.5 14.9636C43.0013 14.9636 43.5015 15.0596 44.0008 15.2516C44.5 15.4435 44.9551 15.7398 45.366 16.1405L68.3595 39.134C68.7602 39.5449 69.0565 40 69.2484 40.4992C69.4404 40.9985 69.5364 41.4987 69.5364 42C69.5364 42.5013 69.4404 42.9971 69.2484 43.4876C69.0565 43.9781 68.7602 44.4285 68.3595 44.8388L45.366 67.8595C44.9551 68.2434 44.5 68.5355 44.0008 68.7359C43.5015 68.9362 43.0013 69.0364 42.5 69.0364ZM43.1267 65.5493L66.0493 42.6267C66.2127 42.4814 66.2945 42.2725 66.2945 42C66.2945 41.7275 66.2127 41.5186 66.0493 41.3733L43.1267 18.4507C42.9814 18.2873 42.7725 18.2055 42.5 18.2055C42.2275 18.2055 42.0186 18.2873 41.8733 18.4507L18.9507 41.3733C18.7873 41.5186 18.7055 41.7275 18.7055 42C18.7055 42.2725 18.7873 42.4814 18.9507 42.6267L41.8733 65.5493C42.0186 65.7127 42.2275 65.7945 42.5 65.7945C42.7725 65.7945 42.9814 65.7127 43.1267 65.5493ZM40.8927 45.0786H44.1073V29.1684H40.8927V45.0786ZM42.5 51.9711C42.9759 51.9711 43.3899 51.795 43.7423 51.4426C44.0946 51.0903 44.2708 50.6762 44.2708 50.2003C44.2708 49.7244 44.0946 49.3104 43.7423 48.958C43.3899 48.6057 42.9759 48.4295 42.5 48.4295C42.0241 48.4295 41.6101 48.6057 41.2577 48.958C40.9054 49.3104 40.7292 49.7244 40.7292 50.2003C40.7292 50.6762 40.9054 51.0903 41.2577 51.4426C41.6101 51.795 42.0241 51.9711 42.5 51.9711Z" fill="white"/>
</svg>
