<svg width="12" height="12" viewBox="0 0 12 12" fill="none" xmlns="http://www.w3.org/2000/svg">
<path d="M0.90625 2.74219C0.78125 2.61719 0.695312 2.46615 0.648438 2.28906C0.606771 2.11198 0.606771 1.9349 0.648438 1.75781C0.690104 1.57552 0.778646 1.41667 0.914062 1.28125C1.04427 1.15104 1.19792 1.0651 1.375 1.02344C1.55729 0.976562 1.73698 0.976562 1.91406 1.02344C2.09635 1.0651 2.25 1.14844 2.375 1.27344L11.0938 9.99219C11.224 10.1224 11.3099 10.276 11.3516 10.4531C11.3932 10.6302 11.3906 10.8099 11.3438 10.9922C11.3021 11.1693 11.2135 11.3229 11.0781 11.4531C10.9479 11.5885 10.7943 11.6797 10.6172 11.7266C10.4401 11.7682 10.263 11.7682 10.0859 11.7266C9.90885 11.6797 9.75521 11.5938 9.625 11.4688L0.90625 2.74219ZM0.90625 10L9.625 1.28125C9.75521 1.15104 9.90885 1.0651 10.0859 1.02344C10.263 0.976562 10.4401 0.976562 10.6172 1.02344C10.7943 1.0651 10.9479 1.15365 11.0781 1.28906C11.2135 1.41927 11.3021 1.57552 11.3438 1.75781C11.3906 1.9349 11.3932 2.11198 11.3516 2.28906C11.3099 2.46615 11.224 2.61979 11.0938 2.75L2.375 11.4688C2.25 11.5938 2.09635 11.6797 1.91406 11.7266C1.73698 11.7682 1.55729 11.7682 1.375 11.7266C1.19792 11.6797 1.04427 11.5911 0.914062 11.4609C0.778646 11.3255 0.690104 11.1693 0.648438 10.9922C0.606771 10.8099 0.606771 10.6302 0.648438 10.4531C0.695312 10.276 0.78125 10.125 0.90625 10Z" fill="#212120"/>
</svg>
