<svg width="24" height="24" viewBox="0 0 24 24" fill="none" xmlns="http://www.w3.org/2000/svg">
<g id="timer_FILL0_wght300_GRAD0_opsz48 2">
<g id="Vector">
<path fill-rule="evenodd" clip-rule="evenodd" d="M12.078 20.156C10.9668 20.156 9.92142 19.9424 8.94184 19.5154C7.96225 19.0883 7.10571 18.5096 6.37223 17.7792C5.63876 17.0487 5.06003 16.1922 4.63602 15.2096C4.21201 14.2269 4 13.1816 4 12.0734C4 10.9653 4.21201 9.92141 4.63602 8.94182C5.06003 7.96223 5.63876 7.1057 6.37223 6.37223C7.10571 5.63874 7.96225 5.06 8.94184 4.636C9.92142 4.212 10.9668 4 12.078 4C13.0905 4 14.0488 4.17514 14.9528 4.52543C15.8569 4.87573 16.664 5.36461 17.3744 5.99209L18.1255 6.75235C18.7079 7.38592 19.1919 8.14346 19.5775 9.02498C19.9632 9.90649 20.156 10.9242 20.156 12.078C20.156 13.1831 19.944 14.2269 19.52 15.2096C19.096 16.1922 18.5172 17.0487 17.7838 17.7792C17.0503 18.5096 16.1937 19.0883 15.2141 19.5154C14.2346 19.9424 13.1892 20.156 12.078 20.156ZM17.0354 17.0367C15.6738 18.3974 14.0209 19.0777 12.0767 19.0777C10.1325 19.0777 8.48003 18.3969 7.11933 17.0353C5.75862 15.6738 5.07827 14.0209 5.07827 12.0767C5.07827 10.1325 5.75905 8.48003 7.12061 7.11933C8.48218 5.75862 10.1351 5.07827 12.0793 5.07827C14.0235 5.07827 15.676 5.75905 17.0367 7.12061C18.3974 8.48218 19.0777 10.1351 19.0777 12.0793C19.0777 14.0235 18.3969 15.676 17.0354 17.0367Z" fill="#212120"/>
<path fill-rule="evenodd" clip-rule="evenodd" d="M11.5389 12.6336H12.6171V7.4706H11.5389V12.6336Z" fill="#212120"/>
<path fill-rule="evenodd" clip-rule="evenodd" d="M12.6171 12.6336H17.1624V11.6101H12.6171V12.6336Z" fill="#212120"/>
</g>
</g>
</svg>
