<svg width="40" height="40" viewBox="0 0 40 40" fill="none" xmlns="http://www.w3.org/2000/svg">
<path d="M20.0093 34.1667V32.2757H31.7624C31.8906 32.2757 32.0081 32.2223 32.115 32.1155C32.2218 32.0086 32.2753 31.8911 32.2753 31.7629V8.23737C32.2753 8.10915 32.2218 7.99161 32.115 7.88475C32.0081 7.77791 31.8906 7.7245 31.7624 7.7245H20.0093V5.8335H31.7624C32.416 5.8335 32.98 6.07075 33.4545 6.54525C33.929 7.01975 34.1663 7.58379 34.1663 8.23737V31.7629C34.1663 32.4165 33.929 32.9805 33.4545 33.455C32.98 33.9295 32.416 34.1667 31.7624 34.1667H20.0093ZM18.5189 26.3462L17.144 25.0033L21.2016 20.9456H5.83301V19.0546H21.1503L17.0927 14.997L18.4516 13.638L24.8394 20.0338L18.5189 26.3462Z" fill="black"/>
</svg>
