<svg width="24" height="24" viewBox="0 0 24 24" fill="none" xmlns="http://www.w3.org/2000/svg">
<path fill-rule="evenodd" clip-rule="evenodd" d="M8.80001 1.79999C8.46864 1.79999 8.20001 2.06862 8.20001 2.39999C8.20001 2.73136 8.46864 2.99999 8.80001 2.99999H15.2C15.5314 2.99999 15.8 2.73136 15.8 2.39999C15.8 2.06862 15.5314 1.79999 15.2 1.79999H8.80001ZM5 5.3C5 4.96863 5.26863 4.7 5.6 4.7H18.4C18.7314 4.7 19 4.96863 19 5.3C19 5.63137 18.7314 5.9 18.4 5.9H17.6V6V17.8C17.6 19.4569 16.2569 20.8 14.6 20.8H9.40001C7.74315 20.8 6.40001 19.4569 6.40001 17.8V6V5.9H5.6C5.26863 5.9 5 5.63137 5 5.3ZM16.4 6H7.60001V17.8C7.60001 18.7941 8.4059 19.6 9.40001 19.6H14.6C15.5941 19.6 16.4 18.7941 16.4 17.8V6ZM9.50002 7.89999C9.8314 7.89999 10.1 8.16862 10.1 8.49999V16.5C10.1 16.8314 9.83139 17.1 9.50002 17.1C9.16865 17.1 8.90002 16.8314 8.90002 16.5L8.90002 8.49999C8.90002 8.16862 9.16865 7.89999 9.50002 7.89999ZM15.1 8.49999C15.1 8.16862 14.8314 7.89999 14.5 7.89999C14.1687 7.89999 13.9 8.16862 13.9 8.49999V16.5C13.9 16.8314 14.1687 17.1 14.5 17.1C14.8314 17.1 15.1 16.8314 15.1 16.5L15.1 8.49999Z" fill="#898989"/>
</svg>
