<svg width="24" height="24" viewBox="0 0 24 24" fill="none" xmlns="http://www.w3.org/2000/svg">
<g id="Trash">
<path id="Shape" fill-rule="evenodd" clip-rule="evenodd" d="M8.968 2.30078C8.65406 2.30078 8.39956 2.55528 8.39956 2.86923C8.39956 3.18317 8.65406 3.43767 8.968 3.43767H15.0312C15.3451 3.43767 15.5996 3.18317 15.5996 2.86923C15.5996 2.55528 15.3451 2.30078 15.0312 2.30078H8.968ZM5.36816 5.61535C5.36816 5.30141 5.62267 5.04691 5.93661 5.04691H18.0629C18.3769 5.04691 18.6314 5.30141 18.6314 5.61535C18.6314 5.9293 18.3769 6.1838 18.0629 6.1838H17.305V6.27851V17.4585C17.305 19.0282 16.0325 20.3008 14.4628 20.3008H9.53673C7.96702 20.3008 6.69451 19.0283 6.69451 17.4585V6.27851V6.1838H5.93661C5.62267 6.1838 5.36816 5.9293 5.36816 5.61535ZM16.1682 6.27851H7.8314V17.4585C7.8314 18.4004 8.59491 19.1639 9.53673 19.1639H14.4628C15.4046 19.1639 16.1682 18.4004 16.1682 17.4585V6.27851ZM9.63086 8.07798C9.9448 8.07798 10.1993 8.33248 10.1993 8.64642L10.1993 16.226C10.1993 16.5399 9.9448 16.7944 9.63086 16.7944C9.31692 16.7944 9.06241 16.5399 9.06241 16.226L9.06242 8.64642C9.06242 8.33248 9.31692 8.07798 9.63086 8.07798ZM14.9366 8.64642C14.9366 8.33248 14.6821 8.07798 14.3682 8.07798C14.0542 8.07798 13.7997 8.33248 13.7997 8.64642V16.226C13.7997 16.5399 14.0542 16.7944 14.3682 16.7944C14.6821 16.7944 14.9366 16.5399 14.9366 16.226V8.64642Z" fill="#212120"/>
</g>
</svg>
