<svg width="24" height="24" viewBox="0 0 24 24" fill="none" xmlns="http://www.w3.org/2000/svg">
<path fill-rule="evenodd" clip-rule="evenodd" d="M8.80001 1.80005C8.46864 1.80005 8.20001 2.06868 8.20001 2.40005C8.20001 2.73142 8.46864 3.00005 8.80001 3.00005H15.2C15.5314 3.00005 15.8 2.73142 15.8 2.40005C15.8 2.06868 15.5314 1.80005 15.2 1.80005H8.80001ZM5 5.30006C5 4.96869 5.26863 4.70006 5.6 4.70006H18.4C18.7314 4.70006 19 4.96869 19 5.30006C19 5.63143 18.7314 5.90006 18.4 5.90006H17.6V6.00006V17.8001C17.6 19.4569 16.2569 20.8001 14.6 20.8001H9.40001C7.74315 20.8001 6.40001 19.4569 6.40001 17.8001V6.00006V5.90006H5.6C5.26863 5.90006 5 5.63143 5 5.30006ZM16.4 6.00006H7.60001V17.8001C7.60001 18.7942 8.4059 19.6001 9.40001 19.6001H14.6C15.5941 19.6001 16.4 18.7942 16.4 17.8001V6.00006ZM9.50002 7.90005C9.8314 7.90005 10.1 8.16868 10.1 8.50005V16.5001C10.1 16.8314 9.83139 17.1001 9.50002 17.1001C9.16865 17.1001 8.90002 16.8314 8.90002 16.5001L8.90002 8.50005C8.90002 8.16868 9.16865 7.90005 9.50002 7.90005ZM15.1 8.50005C15.1 8.16868 14.8314 7.90005 14.5 7.90005C14.1687 7.90005 13.9 8.16868 13.9 8.50005V16.5001C13.9 16.8314 14.1687 17.1001 14.5 17.1001C14.8314 17.1001 15.1 16.8314 15.1 16.5001L15.1 8.50005Z" fill="#212120"/>
</svg>
