<svg width="24" height="24" viewBox="0 0 24 24" fill="none" xmlns="http://www.w3.org/2000/svg">
<path d="M18.2415 4.75871C18.0009 4.51817 17.7154 4.32736 17.4011 4.19718C17.0868 4.067 16.75 4 16.4098 4C16.0696 4 15.7328 4.067 15.4185 4.19718C15.1042 4.32736 14.8187 4.51817 14.5781 4.75871L5.51429 13.8241C5.22857 14.1097 5.02494 14.467 4.92473 14.8584L4.01452 18.4156C3.99444 18.4944 3.9952 18.5771 4.01672 18.6555C4.03825 18.7339 4.07981 18.8054 4.13731 18.8629C4.19481 18.9204 4.26628 18.9619 4.34469 18.9835C4.42311 19.005 4.50578 19.0057 4.58458 18.9857L8.14253 18.0766C8.53422 17.9765 8.89176 17.7729 9.17763 17.487L18.2415 8.42167C18.7272 7.9359 19 7.27711 19 6.59019C19 5.90327 18.7272 5.24448 18.2415 4.75871ZM15.2412 5.42177C15.5511 5.11178 15.9715 4.93762 16.4099 4.93758C16.8482 4.93755 17.2686 5.11165 17.5786 5.42158C17.8886 5.73152 18.0628 6.1519 18.0628 6.59025C18.0628 7.02859 17.8887 7.449 17.5788 7.75899L16.7511 8.58669L14.4139 6.2491L15.2412 5.42177ZM13.7508 6.91216L16.088 9.24975L8.51457 16.824C8.34771 16.9908 8.13902 17.1098 7.91039 17.1682L5.119 17.8816L5.83307 15.0909C5.89157 14.8622 6.01046 14.6536 6.17698 14.4871L13.7508 6.91216Z" fill="black"/>
</svg>
