<svg width="24" height="24" viewBox="0 0 24 24" fill="none" xmlns="http://www.w3.org/2000/svg">
<path fill-rule="evenodd" clip-rule="evenodd" d="M13 3.5C13 3.98885 12.6492 4.39578 12.1856 4.4828C15.4135 4.5809 18 7.22838 18 10.48V16.4C18 17.6122 18 19.2 19.5 20H12H4.5C6 19.2 6 17.6122 6 16.4V10.48C6 7.22838 8.58655 4.58089 11.8144 4.4828C11.3508 4.39578 11 3.98885 11 3.5C11 2.94772 11.4477 2.5 12 2.5C12.5523 2.5 13 2.94772 13 3.5ZM12 20C12.5523 20 13 20.4477 13 21C13 21.5523 12.5523 22 12 22C11.4477 22 11 21.5523 11 21C11 20.4477 11.4477 20 12 20Z" fill="#212120"/>
</svg>
