<svg width="24" height="24" viewBox="0 0 24 24" fill="none" xmlns="http://www.w3.org/2000/svg">
<g id="&#240;&#159;&#166;&#134; icon &#34;biking&#34;">
<path id="Vector" d="M6.75098 13.4984C6.0093 13.4984 5.28427 13.7184 4.66759 14.1304C4.05091 14.5425 3.57026 15.1281 3.28643 15.8134C3.0026 16.4986 2.92834 17.2526 3.07303 17.98C3.21773 18.7075 3.57488 19.3756 4.09933 19.9001C4.62377 20.4245 5.29196 20.7817 6.01939 20.9264C6.74682 21.0711 7.50082 20.9968 8.18604 20.713C8.87126 20.4292 9.45693 19.9485 9.86899 19.3318C10.281 18.7151 10.501 17.9901 10.501 17.2484C10.501 16.756 10.404 16.2683 10.2155 15.8134C10.0271 15.3584 9.75085 14.945 9.40263 14.5968C9.05441 14.2486 8.64101 13.9723 8.18604 13.7839C7.73107 13.5954 7.24343 13.4984 6.75098 13.4984ZM6.75098 19.4984C6.30597 19.4984 5.87096 19.3665 5.50094 19.1192C5.13093 18.872 4.84255 18.5206 4.67225 18.1095C4.50195 17.6983 4.45739 17.2459 4.54421 16.8095C4.63103 16.373 4.84532 15.9721 5.15999 15.6574C5.47466 15.3428 5.87557 15.1285 6.31202 15.0417C6.74848 14.9549 7.20088 14.9994 7.61202 15.1697C8.02315 15.34 8.37455 15.6284 8.62178 15.9984C8.86902 16.3684 9.00098 16.8034 9.00098 17.2484C9.00018 17.8449 8.76288 18.4168 8.34109 18.8385C7.91931 19.2603 7.34747 19.4976 6.75098 19.4984ZM18.751 13.4984C18.0093 13.4984 17.2843 13.7184 16.6676 14.1304C16.0509 14.5425 15.5703 15.1281 15.2864 15.8134C15.0026 16.4986 14.9283 17.2526 15.073 17.98C15.2177 18.7075 15.5749 19.3756 16.0993 19.9001C16.6238 20.4245 17.292 20.7817 18.0194 20.9264C18.7468 21.0711 19.5008 20.9968 20.186 20.713C20.8713 20.4292 21.4569 19.9485 21.869 19.3318C22.281 18.7151 22.501 17.9901 22.501 17.2484C22.501 16.2539 22.1059 15.3 21.4026 14.5968C20.6994 13.8935 19.7455 13.4984 18.751 13.4984ZM18.751 19.4984C18.306 19.4984 17.871 19.3665 17.5009 19.1192C17.1309 18.872 16.8425 18.5206 16.6722 18.1095C16.502 17.6983 16.4574 17.2459 16.5442 16.8095C16.631 16.373 16.8453 15.9721 17.16 15.6574C17.4747 15.3428 17.8756 15.1285 18.312 15.0417C18.7485 14.9549 19.2009 14.9994 19.612 15.1697C20.0231 15.34 20.3745 15.6284 20.6218 15.9984C20.869 16.3684 21.001 16.8034 21.001 17.2484C21.0002 17.8449 20.7629 18.4168 20.3411 18.8385C19.9193 19.2603 19.3475 19.4976 18.751 19.4984ZM17.851 3.74844C17.851 4.16378 17.7278 4.56979 17.4971 4.91513C17.2663 5.26048 16.9383 5.52964 16.5546 5.68858C16.1709 5.84753 15.7486 5.88912 15.3413 5.80809C14.9339 5.72706 14.5597 5.52705 14.2661 5.23336C13.9724 4.93967 13.7724 4.56549 13.6913 4.15813C13.6103 3.75077 13.6519 3.32853 13.8108 2.9448C13.9698 2.56108 14.2389 2.2331 14.5843 2.00235C14.9296 1.7716 15.3356 1.64844 15.751 1.64844C16.3079 1.64844 16.8421 1.86969 17.2359 2.26351C17.6297 2.65734 17.851 3.19148 17.851 3.74844ZM19.165 11.2394C19.18 11.8454 18.5995 11.9939 18.004 11.9939L14.5285 11.9984L13.39 9.13044L10.4365 11.4119L13.0315 13.1564C13.1652 13.2594 13.275 13.3901 13.3535 13.5394C13.4319 13.6888 13.4771 13.8534 13.486 14.0219C13.486 14.0219 13.501 13.9229 13.501 19.5989C13.501 20.2199 13.4155 20.6639 12.796 20.6639C12.1765 20.6639 12.001 20.2184 12.001 19.5974V14.3024L7.72148 11.9984C6.44198 11.2574 7.69148 9.91644 7.69148 9.91644L11.2075 6.84144C11.6905 6.39964 12.3094 6.13517 12.9625 6.09144C13.2581 6.11543 13.5427 6.21438 13.7894 6.37894C14.0361 6.54351 14.2368 6.76825 14.3725 7.03194L15.4675 10.4984H18.0055C18.55 10.4984 19.1545 10.7519 19.165 11.2394Z" fill="black"/>
</g>
</svg>
