<svg width="24" height="24" viewBox="0 0 24 24" fill="none" xmlns="http://www.w3.org/2000/svg">
<g id="&#240;&#159;&#166;&#134; icon &#34;running&#34;">
<path id="Vector" d="M15.7542 4.35234C15.3389 4.35234 14.9329 4.22918 14.5875 3.99843C14.2422 3.76768 13.973 3.4397 13.8141 3.05598C13.6551 2.67225 13.6135 2.25001 13.6946 1.84265C13.7756 1.43529 13.9756 1.06111 14.2693 0.76742C14.563 0.47373 14.9372 0.273725 15.3445 0.192696C15.7519 0.111667 16.1741 0.153254 16.5578 0.312198C16.9416 0.471142 17.2695 0.740304 17.5003 1.08565C17.7311 1.43099 17.8542 1.837 17.8542 2.25234C17.8542 2.52812 17.7999 2.8012 17.6944 3.05598C17.5888 3.31076 17.4341 3.54227 17.2391 3.73727C17.0441 3.93227 16.8126 4.08696 16.5578 4.19249C16.3031 4.29803 16.03 4.35234 15.7542 4.35234ZM6.85471 6.05334L7.50421 10.7258C7.50421 11.5208 9.31621 11.2748 9.28921 10.6703L8.84971 7.62234L11.8062 7.08234L10.6842 12.6173L14.7357 17.3168L13.0842 22.3388C13.0166 22.463 12.9744 22.5994 12.9599 22.7401C12.9454 22.8807 12.959 23.0228 12.9999 23.1582C13.0408 23.2935 13.1082 23.4194 13.1981 23.5285C13.288 23.6377 13.3987 23.7278 13.5237 23.7938C14.1102 24.0158 14.7867 23.5613 15.1932 22.7558C15.2532 22.6388 17.3367 16.9883 17.3367 16.9883L14.1642 13.3478L15.3792 7.38234C15.6717 5.96184 13.8042 5.28834 12.1242 4.69734L6.85471 6.05334ZM5.07421 19.3418C5.14021 19.9448 5.94571 20.2928 6.59221 20.1788L10.3632 18.8468L12.1602 16.6268L10.8582 15.1163L9.49921 16.8278L5.86321 18.0023C5.58935 18.0885 5.35714 18.2732 5.21142 18.5205C5.06571 18.7679 5.01683 19.0605 5.07421 19.3418ZM20.0232 8.78484C19.9996 8.52115 19.8723 8.27761 19.6692 8.10773C19.4661 7.93785 19.2039 7.85553 18.9402 7.87884L16.6332 8.74884L16.2132 10.8083L19.5447 9.71634C19.7031 9.62119 19.8318 9.48374 19.9163 9.31945C20.0009 9.15515 20.0379 8.96903 20.0232 8.78484Z" fill="#212120"/>
</g>
</svg>
