<svg width="24" height="24" viewBox="0 0 24 24" fill="none" xmlns="http://www.w3.org/2000/svg">
<g id="&#240;&#159;&#166;&#134; icon &#34;walking&#34;">
<path id="Vector" d="M13.3499 2.71328C13.3499 3.12862 13.2268 3.53464 12.996 3.87998C12.7653 4.22532 12.4373 4.49448 12.0536 4.65343C11.6699 4.81237 11.2476 4.85396 10.8403 4.77293C10.4329 4.6919 10.0587 4.49189 9.76506 4.1982C9.47137 3.90451 9.27137 3.53033 9.19035 3.12297C9.10932 2.71561 9.1509 2.29337 9.30985 1.90965C9.46879 1.52592 9.73794 1.19795 10.0833 0.967195C10.4286 0.736444 10.8346 0.613281 11.25 0.613281C11.8069 0.613281 12.341 0.834531 12.7349 1.22836C13.1287 1.62218 13.3499 2.15633 13.3499 2.71328ZM13.2299 7.65923C13.1579 6.27173 11.262 6.09473 9.55649 5.95673C8.5365 7.68473 6.87903 10.8977 6.18154 12.2612C6.09299 12.4358 6.0733 12.6372 6.12637 12.8256C6.17944 13.014 6.3014 13.1756 6.46804 13.2782C6.55941 13.335 6.66133 13.3728 6.76767 13.3892C6.874 13.4056 6.98255 13.4003 7.0868 13.3737C7.19105 13.3471 7.28884 13.2997 7.37428 13.2343C7.45973 13.1689 7.53107 13.0869 7.58402 12.9932L9.85648 8.97623L10.1355 13.6607L13.8824 18.1367L15.7124 23.2907C15.8466 23.5369 16.0603 23.7302 16.3185 23.8392C16.5768 23.9482 16.8644 23.9663 17.1344 23.8907C17.417 23.7694 17.6471 23.5513 17.7832 23.2755C17.9193 22.9997 17.9525 22.6843 17.8769 22.3862C17.8469 22.2632 16.1669 17.1452 16.1669 17.1452L13.5449 13.4957L13.2299 7.65923ZM11.268 17.3492L9.52049 15.2612L8.889 17.2442L5.57855 21.8732C5.47955 22.0008 5.40793 22.1475 5.36817 22.3041C5.32841 22.4606 5.32137 22.6237 5.34748 22.783C5.37359 22.9424 5.43229 23.0947 5.51992 23.2304C5.60755 23.3661 5.72222 23.4822 5.85676 23.5716C5.99131 23.6609 6.14284 23.7216 6.30188 23.7497C6.46092 23.7779 6.62405 23.7729 6.78109 23.7351C6.93812 23.6974 7.08568 23.6276 7.21455 23.5303C7.34341 23.4329 7.4508 23.31 7.53002 23.1692L11.016 18.5402L11.268 17.3492ZM18.1243 12.4802C18.3019 12.2983 18.4 12.0533 18.3972 11.7991C18.3944 11.5449 18.2909 11.3022 18.1093 11.1242L14.7989 8.86373L14.9174 11.0342L17.1479 12.7127C17.3163 12.769 17.4972 12.7771 17.67 12.736C17.8428 12.6949 17.9992 12.6063 18.1243 12.4802Z" fill="black"/>
</g>
</svg>
