<svg width="69" height="68" viewBox="0 0 69 68" fill="none" xmlns="http://www.w3.org/2000/svg">
<path d="M33.0503 47.4582H36.2649V31.1666H33.0503V47.4582ZM34.4983 26.6334C35.0422 26.6334 35.4999 26.4547 35.8713 26.0975C36.2427 25.7402 36.4284 25.2904 36.4284 24.7481C36.4284 24.1838 36.2431 23.714 35.8726 23.3387C35.502 22.9634 35.0447 22.7757 34.5009 22.7757C33.9388 22.7757 33.4767 22.9634 33.1143 23.3387C32.752 23.714 32.5708 24.1838 32.5708 24.7481C32.5708 25.2904 32.7561 25.7402 33.1266 26.0975C33.4972 26.4547 33.9545 26.6334 34.4983 26.6334ZM34.5232 60.9166C30.7948 60.9166 27.3027 60.2101 24.0472 58.7972C20.7916 57.3843 17.9404 55.4551 15.4937 53.0094C13.0469 50.5638 11.1168 47.7121 9.70326 44.4544C8.28976 41.1967 7.58301 37.7017 7.58301 33.9693C7.58301 30.255 8.28945 26.7638 9.70234 23.4956C11.1152 20.2274 13.0445 17.3817 15.4901 14.9586C17.9358 12.5355 20.7875 10.6171 24.0452 9.20363C27.3028 7.79013 30.7979 7.08337 34.5303 7.08337C38.2445 7.08337 41.7358 7.78982 45.004 9.20271C48.2722 10.6156 51.1178 12.5331 53.541 14.9551C55.9641 17.3772 57.8824 20.2253 59.296 23.4996C60.7095 26.7739 61.4162 30.2661 61.4162 33.9764C61.4162 37.7048 60.7098 41.1968 59.2969 44.4524C57.884 47.708 55.9665 50.5548 53.5445 52.9929C51.1224 55.4309 48.2742 57.361 44.9999 58.7832C41.7257 60.2055 38.2334 60.9166 34.5232 60.9166ZM34.535 57.7019C41.108 57.7019 46.6956 55.3934 51.298 50.7766C55.9003 46.1597 58.2015 40.5557 58.2015 33.9646C58.2015 27.3916 55.9048 21.8039 51.3113 17.2016C46.7178 12.5992 41.1139 10.2981 34.4996 10.2981C27.9321 10.2981 22.3399 12.5948 17.723 17.1883C13.1061 21.7818 10.7977 27.3857 10.7977 34C10.7977 40.5675 13.1061 46.1597 17.723 50.7766C22.3399 55.3934 27.9439 57.7019 34.535 57.7019Z" fill="#FFD600"/>
</svg>
