<svg width="32" height="32" viewBox="0 0 32 32" fill="none" xmlns="http://www.w3.org/2000/svg">
<g id="settings_FILL0_wght300_GRAD0_opsz48 1">
<path id="Vector" d="M13.3561 28.6666L12.7536 24.6589C12.2972 24.5034 11.8057 24.2773 11.2792 23.9807C10.7527 23.6842 10.2989 23.3701 9.91766 23.0384L6.18946 24.7358L3.52539 20.0256L6.89462 17.5462C6.85018 17.312 6.81812 17.0564 6.79846 16.7795C6.77879 16.5026 6.76896 16.247 6.76896 16.0128C6.76896 15.7872 6.77879 15.5359 6.79846 15.259C6.81812 14.982 6.85018 14.7137 6.89462 14.4538L3.52539 11.9615L6.18946 7.28981L9.90482 8.96161C10.3117 8.62996 10.7698 8.31799 11.2792 8.02568C11.7886 7.73336 12.2758 7.51627 12.7408 7.37441L13.3561 3.33337H18.6433L19.2458 7.35388C19.7364 7.53508 20.227 7.75986 20.7176 8.02824C21.2082 8.29662 21.6501 8.60774 22.0433 8.96161L25.8227 7.28981L28.474 11.9615L25.0535 14.4385C25.115 14.7034 25.1535 14.9701 25.1689 15.2385C25.1843 15.5069 25.192 15.7607 25.192 16C25.192 16.2308 25.1821 16.4769 25.1625 16.7385C25.1428 17 25.1065 17.2718 25.0535 17.5539L28.4612 20.0256L25.7971 24.7358L22.0433 23.0256C21.6279 23.3743 21.1796 23.6961 20.6984 23.991C20.2172 24.2859 19.733 24.5043 19.2458 24.6461L18.6433 28.6666H13.3561ZM15.9612 19.7564C17.0074 19.7564 17.895 19.3919 18.624 18.6628C19.3531 17.9337 19.7176 17.0461 19.7176 16C19.7176 14.9539 19.3531 14.0663 18.624 13.3372C17.895 12.6082 17.0074 12.2436 15.9612 12.2436C14.9236 12.2436 14.0382 12.6082 13.3049 13.3372C12.5715 14.0663 12.2049 14.9539 12.2049 16C12.2049 17.0461 12.5715 17.9337 13.3049 18.6628C14.0382 19.3919 14.9236 19.7564 15.9612 19.7564ZM15.9612 18.2436C15.3424 18.2436 14.8138 18.0244 14.3753 17.5859C13.9369 17.1474 13.7177 16.6188 13.7177 16C13.7177 15.3812 13.9369 14.8526 14.3753 14.4141C14.8138 13.9757 15.3424 13.7564 15.9612 13.7564C16.5886 13.7564 17.1193 13.9757 17.5535 14.4141C17.9877 14.8526 18.2048 15.3812 18.2048 16C18.2048 16.6188 17.9877 17.1474 17.5535 17.5859C17.1193 18.0244 16.5886 18.2436 15.9612 18.2436ZM14.5715 27.1538H17.4151L17.8946 23.4333C18.6022 23.2556 19.2625 22.9906 19.8753 22.6385C20.4881 22.2863 21.074 21.8393 21.633 21.2974L25.1151 22.8051L26.4484 20.4436L23.3664 18.1692C23.4552 17.7744 23.5253 17.4021 23.5766 17.0526C23.6279 16.703 23.6535 16.3521 23.6535 16C23.6535 15.6308 23.6313 15.2757 23.5869 14.9346C23.5424 14.5936 23.4689 14.2342 23.3664 13.8564L26.474 11.5564L25.1407 9.19488L21.6202 10.7026C21.1518 10.1761 20.5869 9.71199 19.9253 9.31027C19.2638 8.90856 18.5826 8.6607 17.8817 8.56668L17.4279 4.84618H14.5715L14.1305 8.55388C13.392 8.70088 12.7121 8.95257 12.0907 9.30897C11.4694 9.6654 10.8903 10.1257 10.3536 10.6898L6.85869 9.19488L5.52536 11.5564L8.60739 13.818C8.50995 14.1701 8.43559 14.5274 8.38432 14.8897C8.33304 15.2521 8.30739 15.6265 8.30739 16.0128C8.30739 16.3821 8.33304 16.7436 8.38432 17.0974C8.43559 17.4513 8.50567 17.8086 8.59456 18.1692L5.52536 20.4436L6.85869 22.8051L10.3407 21.3102C10.8741 21.8521 11.4535 22.2991 12.0792 22.6513C12.7048 23.0034 13.3843 23.2684 14.1177 23.4461L14.5715 27.1538Z" fill="#A6A6A6"/>
</g>
</svg>
