<svg width="24" height="24" viewBox="0 0 24 24" fill="none" xmlns="http://www.w3.org/2000/svg">
<g id="Analytics">
<path id="Union" fill-rule="evenodd" clip-rule="evenodd" d="M2.91016 2.54297C2.91016 2.12876 2.57437 1.79297 2.16016 1.79297C1.74594 1.79297 1.41016 2.12876 1.41016 2.54297V17.8655C1.41016 19.9365 3.08909 21.6155 5.16016 21.6155H23.1377C23.5519 21.6155 23.8877 21.2797 23.8877 20.8655C23.8877 20.4513 23.5519 20.1155 23.1377 20.1155H5.16016C3.91752 20.1155 2.91016 19.1081 2.91016 17.8655V2.54297ZM20.6875 4.9043H20.0625C19.5102 4.9043 19.0625 5.35201 19.0625 5.9043V17.5543C19.0625 18.1066 19.5102 18.5543 20.0625 18.5543H20.6875C21.2398 18.5543 21.6875 18.1066 21.6875 17.5543V5.9043C21.6875 5.35201 21.2398 4.9043 20.6875 4.9043ZM10.9375 8.66992H10.3125C9.76022 8.66992 9.3125 9.11764 9.3125 9.66992V17.5512C9.3125 18.1035 9.76021 18.5512 10.3125 18.5512H10.9375C11.4898 18.5512 11.9375 18.1035 11.9375 17.5512V9.66992C11.9375 9.11764 11.4898 8.66992 10.9375 8.66992ZM6.0625 14.2578H5.4375C4.88522 14.2578 4.4375 14.7055 4.4375 15.2578V17.5516C4.4375 18.1038 4.88522 18.5516 5.4375 18.5516H6.0625C6.61478 18.5516 7.0625 18.1038 7.0625 17.5516V15.2578C7.0625 14.7055 6.61478 14.2578 6.0625 14.2578ZM15.1875 10.5742H15.8125C16.3648 10.5742 16.8125 11.0219 16.8125 11.5742V17.5505C16.8125 18.1028 16.3648 18.5505 15.8125 18.5505H15.1875C14.6352 18.5505 14.1875 18.1028 14.1875 17.5505V11.5742C14.1875 11.0219 14.6352 10.5742 15.1875 10.5742Z" fill="#898989"/>
</g>
</svg>
