<svg width="33" height="32" viewBox="0 0 33 32" fill="none" xmlns="http://www.w3.org/2000/svg">
<g clip-path="url(#clip0_3005_5113)">
<path d="M26.6115 23.0623L25.0093 23.0623L25.0093 16.7152L7.83148 16.7152L7.83148 23.0623L6.22925 23.0623L6.20174 20.4973L4.14568 20.4973L4.13708 16.7066L2.10501 16.7066L2.09643 15.2849L4.14568 15.2573L4.14568 11.5027L6.20175 11.5027L6.22926 8.93773L7.83148 8.93771L7.83148 15.2848L25.0093 15.2848L25.0093 8.93771L26.6115 8.93773L26.639 11.5027L28.6951 11.5027L28.6951 15.3295L30.7357 15.3209L30.7357 16.7512L28.6951 16.7426V20.4973L26.639 20.4973L26.6115 23.0623Z" fill="#212120"/>
</g>
<defs>
<clipPath id="clip0_3005_5113">
<rect width="32" height="32" fill="white" transform="translate(0.5)"/>
</clipPath>
</defs>
</svg>
