<svg width="24" height="24" viewBox="0 0 24 24" fill="none" xmlns="http://www.w3.org/2000/svg">
<g id="Icon_Training">
<path id="Union" fill-rule="evenodd" clip-rule="evenodd" d="M6.75 7.75C6.75 7.33579 6.41421 7 6 7C5.58579 7 5.25 7.33579 5.25 7.75V8.04268C5.17181 8.01504 5.08766 8 5 8C4.58579 8 4.25 8.33579 4.25 8.75V9.04268C4.17181 9.01504 4.08766 9 4 9C3.58579 9 3.25 9.33579 3.25 9.75V11H3C2.58579 11 2.25 11.3358 2.25 11.75C2.25 12.1642 2.58579 12.5 3 12.5H3.25V13.75C3.25 14.1642 3.58579 14.5 4 14.5C4.08766 14.5 4.17181 14.485 4.25 14.4573V14.75C4.25 15.1642 4.58579 15.5 5 15.5C5.08766 15.5 5.17181 15.485 5.25 15.4573V15.75C5.25 16.1642 5.58579 16.5 6 16.5C6.41421 16.5 6.75 16.1642 6.75 15.75V12.5H17.25V15.75C17.25 16.1642 17.5858 16.5 18 16.5C18.4142 16.5 18.75 16.1642 18.75 15.75V15.4573C18.8282 15.485 18.9123 15.5 19 15.5C19.4142 15.5 19.75 15.1642 19.75 14.75V14.4573C19.8282 14.485 19.9123 14.5 20 14.5C20.4142 14.5 20.75 14.1642 20.75 13.75V12.5H21C21.4142 12.5 21.75 12.1642 21.75 11.75C21.75 11.3358 21.4142 11 21 11H20.75V9.75C20.75 9.33579 20.4142 9 20 9C19.9123 9 19.8282 9.01504 19.75 9.04268V8.75C19.75 8.33579 19.4142 8 19 8C18.9123 8 18.8282 8.01504 18.75 8.04268V7.75C18.75 7.33579 18.4142 7 18 7C17.5858 7 17.25 7.33579 17.25 7.75V11H6.75V7.75Z" fill="#898989"/>
</g>
</svg>
