<svg width="32" height="32" viewBox="0 0 32 32" fill="none" xmlns="http://www.w3.org/2000/svg">
<g id="fitness_center_FILL0_wght300_GRAD0_opsz48 1" clip-path="url(#clip0_1703_1548)">
<path id="Vector" d="M26.1115 23.0623L24.5093 23.0623L24.5093 16.7152L7.33148 16.7152L7.33148 23.0623L5.72925 23.0623L5.70174 20.4973L3.64568 20.4973L3.63708 16.7066L1.60501 16.7066L1.59643 15.2849L3.64568 15.2573L3.64568 11.5027L5.70175 11.5027L5.72926 8.93773L7.33148 8.93771L7.33148 15.2848L24.5093 15.2848L24.5093 8.93771L26.1115 8.93773L26.139 11.5027L28.1951 11.5027L28.1951 15.3295L30.2357 15.3209L30.2357 16.7512L28.1951 16.7426V20.4973L26.139 20.4973L26.1115 23.0623Z" fill="#A6A6A6"/>
</g>
<defs>
<clipPath id="clip0_1703_1548">
<rect width="32" height="32" fill="white"/>
</clipPath>
</defs>
</svg>
