<svg width="24" height="24" viewBox="0 0 24 24" fill="none" xmlns="http://www.w3.org/2000/svg">
<path fill-rule="evenodd" clip-rule="evenodd" d="M13.0005 3.5C13.0005 3.65811 12.9638 3.80765 12.8984 3.94056C16.1187 4.37864 18.6005 7.13949 18.6005 10.48V16.4C18.6005 17.6813 18.6434 18.8629 19.7828 19.4706C20.0257 19.6002 20.1493 19.8784 20.0825 20.1455C20.0158 20.4126 19.7758 20.6 19.5004 20.6H12.9173C12.9708 20.7225 13.0005 20.8578 13.0005 21C13.0005 21.5523 12.5527 22 12.0005 22C11.4482 22 11.0005 21.5523 11.0005 21C11.0005 20.8578 11.0302 20.7225 11.0837 20.6H4.50045C4.22513 20.6 3.98514 20.4126 3.91836 20.1455C3.85159 19.8784 3.97516 19.6002 4.21809 19.4706C5.35753 18.8629 5.40045 17.6813 5.40045 16.4V10.48C5.40045 7.13949 7.88218 4.37863 11.1025 3.94056C11.0372 3.80764 11.0005 3.65811 11.0005 3.5C11.0005 2.94772 11.4482 2.5 12.0005 2.5C12.5527 2.5 13.0005 2.94772 13.0005 3.5ZM12.0004 5.07999C9.01811 5.07999 6.60045 7.49765 6.60045 10.48V16.4L6.60049 16.4757C6.60113 17.2711 6.60206 18.4354 6.0058 19.4H17.9951C17.3988 18.4354 17.3998 17.2711 17.4004 16.4757L17.4004 16.4V10.48C17.4004 7.49765 14.9828 5.07999 12.0004 5.07999Z" fill="#F5F5F5"/>
</svg>
