<svg width="16" height="16" viewBox="0 0 16 16" fill="none" xmlns="http://www.w3.org/2000/svg">
<g id="&#240;&#159;&#166;&#134; icon &#34;biking&#34;">
<path id="Vector" d="M2.97164 10.057C2.3839 10.057 1.80937 10.2313 1.32068 10.5578C0.832002 10.8843 0.45112 11.3484 0.226204 11.8914C0.00128756 12.4344 -0.0575607 13.0319 0.0571005 13.6083C0.171762 14.1847 0.454783 14.7142 0.870373 15.1298C1.28596 15.5454 1.81546 15.8284 2.3919 15.9431C2.96834 16.0577 3.56584 15.9989 4.10883 15.774C4.65183 15.549 5.11593 15.1682 5.44246 14.6795C5.76899 14.1908 5.94327 13.6163 5.94327 13.0286C5.94327 12.6383 5.86641 12.2519 5.71707 11.8914C5.56773 11.5309 5.34884 11.2033 5.0729 10.9274C4.79696 10.6514 4.46937 10.4325 4.10883 10.2832C3.7483 10.1339 3.36188 10.057 2.97164 10.057ZM2.97164 14.8115C2.619 14.8115 2.27428 14.707 1.98107 14.511C1.68786 14.3151 1.45933 14.0367 1.32438 13.7109C1.18943 13.3851 1.15412 13.0266 1.22292 12.6807C1.29171 12.3349 1.46152 12.0172 1.71088 11.7678C1.96023 11.5185 2.27793 11.3487 2.6238 11.2799C2.96966 11.2111 3.32816 11.2464 3.65395 11.3813C3.97975 11.5163 4.25822 11.7448 4.45413 12.038C4.65005 12.3312 4.75462 12.6759 4.75462 13.0286C4.75399 13.5012 4.56594 13.9544 4.2317 14.2886C3.89746 14.6228 3.44432 14.8109 2.97164 14.8115ZM12.4809 10.057C11.8931 10.057 11.3186 10.2313 10.8299 10.5578C10.3412 10.8843 9.96035 11.3484 9.73544 11.8914C9.51052 12.4344 9.45167 13.0319 9.56634 13.6083C9.681 14.1847 9.96402 14.7142 10.3796 15.1298C10.7952 15.5454 11.3247 15.8284 11.9011 15.9431C12.4776 16.0577 13.0751 15.9989 13.6181 15.774C14.1611 15.549 14.6252 15.1682 14.9517 14.6795C15.2782 14.1908 15.4525 13.6163 15.4525 13.0286C15.4525 12.2405 15.1394 11.4846 14.5821 10.9274C14.0248 10.3701 13.269 10.057 12.4809 10.057ZM12.4809 14.8115C12.1282 14.8115 11.7835 14.707 11.4903 14.511C11.1971 14.3151 10.9686 14.0367 10.8336 13.7109C10.6987 13.3851 10.6634 13.0266 10.7322 12.6807C10.8009 12.3349 10.9708 12.0172 11.2201 11.7678C11.4695 11.5185 11.7872 11.3487 12.133 11.2799C12.4789 11.2111 12.8374 11.2464 13.1632 11.3813C13.489 11.5163 13.7675 11.7448 13.9634 12.038C14.1593 12.3312 14.2639 12.6759 14.2639 13.0286C14.2632 13.5012 14.0752 13.9544 13.7409 14.2886C13.4067 14.6228 12.9536 14.8109 12.4809 14.8115ZM11.7677 2.33089C11.7677 2.66002 11.6701 2.98175 11.4872 3.25541C11.3044 3.52907 11.0445 3.74236 10.7404 3.86831C10.4363 3.99426 10.1017 4.02721 9.77891 3.963C9.4561 3.89879 9.15959 3.7403 8.92686 3.50758C8.69413 3.27485 8.53563 2.97834 8.47142 2.65554C8.40721 2.33274 8.44017 1.99815 8.56612 1.69408C8.69207 1.39 8.90537 1.13011 9.17903 0.947258C9.45269 0.764406 9.77443 0.666809 10.1036 0.666809C10.5449 0.666809 10.9682 0.842132 11.2803 1.15421C11.5924 1.46628 11.7677 1.88955 11.7677 2.33089ZM12.8089 8.26692C12.8208 8.74713 12.3608 8.8648 11.8889 8.8648L9.13481 8.86837L8.23262 6.5957L5.89216 8.40361L7.94853 9.78599C8.05447 9.86758 8.14151 9.97111 8.20368 10.0895C8.26585 10.2079 8.30167 10.3383 8.30869 10.4718C8.30869 10.4718 8.32058 10.3934 8.32058 14.8912C8.32058 15.3833 8.25283 15.7351 7.76191 15.7351C7.271 15.7351 7.13193 15.3821 7.13193 14.89V10.6941L3.7407 8.86837C2.72677 8.28118 3.71692 7.21855 3.71692 7.21855L6.50313 4.78185C6.88589 4.43176 7.37629 4.22219 7.89386 4.18754C8.12809 4.20655 8.35361 4.28496 8.54912 4.41536C8.74462 4.54577 8.90365 4.72385 9.01119 4.93281L9.87891 7.67973H11.8901C12.3216 7.67973 12.8006 7.88061 12.8089 8.26692Z" fill="#F5F5F5"/>
</g>
</svg>
