<svg width="16" height="16" viewBox="0 0 16 16" fill="none" xmlns="http://www.w3.org/2000/svg">
<g id="&#240;&#159;&#166;&#134; icon &#34;running&#34;">
<path id="Vector" d="M10.4686 2.90059C10.1917 2.90059 9.92106 2.81848 9.69083 2.66464C9.4606 2.51081 9.28116 2.29216 9.1752 2.03634C9.06924 1.78053 9.04151 1.49903 9.09553 1.22746C9.14955 0.955887 9.28289 0.706431 9.47868 0.510637C9.67447 0.314844 9.92393 0.181506 10.1955 0.127487C10.4671 0.0734679 10.7486 0.101193 11.0044 0.207155C11.2602 0.313118 11.4789 0.492559 11.6327 0.722788C11.7865 0.953017 11.8686 1.22369 11.8686 1.50059C11.8686 1.68444 11.8324 1.86649 11.7621 2.03634C11.6917 2.2062 11.5886 2.36053 11.4586 2.49054C11.3286 2.62054 11.1742 2.72366 11.0044 2.79402C10.8345 2.86437 10.6525 2.90059 10.4686 2.90059ZM4.53563 4.03459L4.96863 7.14959C4.96863 7.67959 6.17663 7.51559 6.15863 7.11259L5.86563 5.08059L7.83663 4.72059L7.08863 8.41059L9.78963 11.5436L8.68863 14.8916C8.64357 14.9744 8.6154 15.0653 8.60575 15.1591C8.59611 15.2528 8.60518 15.3476 8.63243 15.4378C8.65969 15.528 8.70459 15.612 8.76453 15.6847C8.82448 15.7575 8.89827 15.8176 8.98163 15.8616C9.37263 16.0096 9.82363 15.7066 10.0946 15.1696C10.1346 15.0916 11.5236 11.3246 11.5236 11.3246L9.40863 8.89759L10.2186 4.92059C10.4136 3.97359 9.16863 3.52459 8.04863 3.13059L4.53563 4.03459ZM3.34863 12.8936C3.39263 13.2956 3.92963 13.5276 4.36063 13.4516L6.87463 12.5636L8.07263 11.0836L7.20463 10.0766L6.29863 11.2176L3.87463 12.0006C3.69205 12.0581 3.53725 12.1811 3.4401 12.3461C3.34296 12.511 3.31037 12.706 3.34863 12.8936ZM13.3146 5.85559C13.2989 5.67979 13.214 5.51743 13.0786 5.40418C12.9432 5.29092 12.7684 5.23604 12.5926 5.25159L11.0546 5.83159L10.7746 7.20459L12.9956 6.47659C13.1012 6.41315 13.187 6.32152 13.2434 6.21199C13.2997 6.10246 13.3244 5.97838 13.3146 5.85559Z" fill="#F5F5F5"/>
</g>
</svg>
