<svg width="24" height="24" viewBox="0 0 24 24" fill="none" xmlns="http://www.w3.org/2000/svg">
<g id="timer_FILL0_wght300_GRAD0_opsz48 1">
<path id="Vector" d="M9.1923 2.38457V1.25H14.8077V2.38457H9.1923ZM11.4327 13.5692H12.5673V8.13653H11.4327V13.5692ZM12 21.4846C10.8307 21.4846 9.73075 21.2599 8.7 20.8105C7.66923 20.3612 6.76795 19.7522 5.99615 18.9836C5.22437 18.215 4.6154 17.3137 4.16925 16.2798C3.72308 15.2458 3.5 14.1458 3.5 12.9798C3.5 11.8138 3.72308 10.7154 4.16925 9.6846C4.6154 8.65383 5.22437 7.75256 5.99615 6.98078C6.76795 6.20898 7.66923 5.6 8.7 5.15385C9.73075 4.7077 10.8307 4.48463 12 4.48463C13.0654 4.48463 14.0737 4.66892 15.025 5.0375C15.9762 5.4061 16.8256 5.92053 17.573 6.58078L18.723 5.42118L19.523 6.22115L18.3634 7.38075C18.9762 8.04742 19.4855 8.84453 19.8913 9.7721C20.2971 10.6997 20.5 11.7705 20.5 12.9846C20.5 14.1474 20.2769 15.2458 19.8307 16.2798C19.3846 17.3137 18.7756 18.215 18.0038 18.9836C17.232 19.7522 16.3307 20.3612 15.3 20.8105C14.2692 21.2599 13.1692 21.4846 12 21.4846ZM11.9986 20.35C14.0444 20.35 15.7836 19.6341 17.2163 18.2023C18.649 16.7705 19.3654 15.0317 19.3654 12.986C19.3654 10.9402 18.6495 9.20095 17.2177 7.76825C15.7859 6.33557 14.0471 5.61923 12.0013 5.61923C9.95556 5.61923 8.21633 6.33512 6.78363 7.7669C5.35094 9.19868 4.6346 10.9375 4.6346 12.9832C4.6346 15.029 5.35049 16.7682 6.78227 18.2009C8.21406 19.6336 9.95284 20.35 11.9986 20.35Z" fill="#212120"/>
</g>
</svg>
