<svg width="16" height="16" viewBox="0 0 16 16" fill="none" xmlns="http://www.w3.org/2000/svg">
<g id="&#240;&#159;&#166;&#134; icon &#34;walking&#34;">
<path id="Vector" d="M8.67933 1.80756C8.67933 2.08446 8.59723 2.35513 8.44339 2.58536C8.28956 2.81559 8.07091 2.99503 7.81509 3.10099C7.55928 3.20696 7.27778 3.23468 7.00621 3.18066C6.73464 3.12664 6.48518 2.9933 6.28939 2.79751C6.09359 2.60172 5.96026 2.35226 5.90624 2.08069C5.85222 1.80912 5.87994 1.52762 5.9859 1.27181C6.09187 1.01599 6.27131 0.797339 6.50154 0.643505C6.73177 0.489671 7.00244 0.407562 7.27934 0.407562C7.65064 0.407562 8.00673 0.555062 8.26928 0.817613C8.53184 1.08016 8.67933 1.43626 8.67933 1.80756ZM8.59933 5.10486C8.55133 4.17986 7.28733 4.06186 6.15034 3.96986C5.47034 5.12186 4.36534 7.26386 3.90034 8.17286C3.8413 8.28923 3.82817 8.42354 3.86355 8.54913C3.89893 8.67472 3.98024 8.78243 4.09134 8.85086C4.15225 8.88873 4.2202 8.9139 4.29109 8.92483C4.36198 8.93577 4.43435 8.93226 4.50385 8.91451C4.57335 8.89677 4.63854 8.86514 4.69551 8.82156C4.75247 8.77797 4.80004 8.72331 4.83534 8.66086L6.35034 5.98286L6.53634 9.10586L9.03434 12.0899L10.2543 15.5259C10.3438 15.6899 10.4863 15.8188 10.6584 15.8915C10.8306 15.9642 11.0224 15.9763 11.2023 15.9259C11.3908 15.845 11.5441 15.6996 11.6349 15.5157C11.7256 15.3318 11.7478 15.1216 11.6973 14.9229C11.6773 14.8409 10.5573 11.4289 10.5573 11.4289L8.80933 8.99586L8.59933 5.10486ZM7.29134 11.5649L6.12634 10.1729L5.70534 11.4949L3.49834 14.5809C3.43233 14.6659 3.38459 14.7637 3.35808 14.8681C3.33157 14.9724 3.32688 15.0811 3.34428 15.1874C3.36169 15.2937 3.40083 15.3952 3.45925 15.4856C3.51767 15.5761 3.59411 15.6535 3.68381 15.7131C3.77351 15.7727 3.87453 15.8131 3.98056 15.8318C4.08659 15.8506 4.19535 15.8473 4.30004 15.8221C4.40473 15.797 4.50311 15.7505 4.58902 15.6855C4.67493 15.6206 4.74652 15.5387 4.79934 15.4449L7.12333 12.3589L7.29134 11.5649ZM11.8623 8.31886C11.9807 8.19757 12.0461 8.03427 12.0443 7.8648C12.0424 7.69532 11.9734 7.53351 11.8523 7.41486L9.64534 5.90786L9.72433 7.35486L11.2113 8.47386C11.3237 8.5114 11.4442 8.51677 11.5594 8.48938C11.6747 8.46199 11.7789 8.40293 11.8623 8.31886Z" fill="#F5F5F5"/>
</g>
</svg>
