<svg width="24" height="24" viewBox="0 0 24 24" fill="none" xmlns="http://www.w3.org/2000/svg">
<g id="Home">
<path id="Shape" fill-rule="evenodd" clip-rule="evenodd" d="M12.5425 2.22618C12.4013 2.08155 12.2078 2 12.0057 2C11.8036 2 11.6101 2.08155 11.4689 2.22618L1.10094 12.8502C0.811638 13.1466 0.817429 13.6215 1.11387 13.9108C1.41032 14.2001 1.88515 14.1943 2.17445 13.8978L3.57912 12.4585V21.7085C3.57912 22.1227 3.91491 22.4585 4.32912 22.4585H19.6891C20.1033 22.4585 20.4391 22.1227 20.4391 21.7085V12.4655L21.8369 13.8978C22.1262 14.1943 22.6011 14.2001 22.8975 13.9108C23.194 13.6215 23.1998 13.1466 22.9105 12.8502L12.5425 2.22618ZM18.9391 10.9285L12.0057 3.82384L5.07912 10.9214V20.9585H18.9391V10.9285Z" fill="#898989"/>
</g>
</svg>
