<svg width="24" height="24" viewBox="0 0 24 24" fill="none" xmlns="http://www.w3.org/2000/svg">
<g id="steps_FILL0_wght300_GRAD0_opsz48 1">
<path id="Vector" d="M7.91569 9.16984C8.3006 9.16984 8.67542 9.2675 9.04014 9.46283C9.40487 9.65815 9.73373 9.93337 10.0267 10.2885L16.4577 18.492H17.03C17.2892 18.492 17.5065 18.3751 17.6819 18.1413C17.8573 17.9074 17.945 17.6177 17.945 17.272C17.945 17.1183 17.9342 16.955 17.9126 16.7821C17.891 16.6091 17.8155 16.4362 17.686 16.2633L14.6509 12.2251L13.4033 7.23151L11.5397 7.84842C11.2888 7.92975 11.065 7.86978 10.8683 7.66853C10.6715 7.46727 10.5732 7.19559 10.5732 6.85349V4.21403L9.78443 3.68822L6.95555 8.75742C6.91602 8.81584 6.88252 8.87942 6.85503 8.94817C6.82753 9.0169 6.80046 9.09079 6.77382 9.16984H7.91569ZM7.91569 10.1837H6.69908C6.72829 10.3704 6.77748 10.5435 6.84665 10.7031C6.91581 10.8627 7.00152 11.008 7.10376 11.1391L12.7151 17.937C12.8629 18.1249 13.0274 18.2643 13.2087 18.3554C13.39 18.4465 13.5803 18.492 13.7797 18.492H15.3545L9.50733 11.0308C9.29339 10.7605 9.0482 10.5517 8.77174 10.4045C8.49529 10.2573 8.20993 10.1837 7.91569 10.1837ZM13.7797 19.5059C13.4875 19.5059 13.2089 19.4354 12.9439 19.2945C12.6788 19.1536 12.435 18.9514 12.2125 18.6879L6.7674 12.0979C6.31804 11.5469 6.06587 10.8745 6.01088 10.0806C5.9559 9.28669 6.10926 8.56326 6.47097 7.91028L9.05757 3.30846C9.20019 3.05186 9.38985 2.88203 9.62656 2.79897C9.86325 2.71592 10.0903 2.75286 10.3077 2.9098L10.7832 3.22254C10.9619 3.34627 11.0983 3.51381 11.1924 3.72517C11.2865 3.93653 11.3335 4.1705 11.3335 4.4271V6.87927L12.9922 6.30876C13.2457 6.21825 13.488 6.25978 13.7191 6.43334C13.9502 6.6069 14.1087 6.85806 14.1946 7.18683L15.3094 11.6598L18.2156 15.5347C18.4047 15.7868 18.5335 16.0583 18.6023 16.3492C18.671 16.6402 18.7054 16.9478 18.7054 17.272C18.7054 17.8906 18.5432 18.4176 18.2189 18.8529C17.8945 19.2882 17.4982 19.5059 17.03 19.5059H13.7797Z" fill="#212120"/>
</g>
</svg>
