<svg width="33" height="32" viewBox="0 0 33 32" fill="none" xmlns="http://www.w3.org/2000/svg">
<g id="steps_FILL0_wght300_GRAD0_opsz48 1">
<path id="Vector" d="M11.0542 12.2251C11.5675 12.2251 12.0672 12.3553 12.5535 12.6157C13.0398 12.8762 13.4783 13.2431 13.869 13.7166L22.4436 24.6547H23.2066C23.5523 24.6547 23.8421 24.4988 24.0759 24.187C24.3097 23.8752 24.4267 23.4888 24.4267 23.0279C24.4267 22.823 24.4123 22.6052 24.3835 22.3747C24.3547 22.1441 24.254 21.9136 24.0813 21.683L20.0345 16.2988L18.3711 9.64063L15.8863 10.4632C15.5518 10.5716 15.2534 10.4917 14.991 10.2233C14.7287 9.95497 14.5975 9.59274 14.5975 9.1366V5.61733L13.5459 4.91624L9.77407 11.6752C9.72137 11.7531 9.67669 11.8378 9.64004 11.9295C9.60337 12.0211 9.56728 12.1197 9.53176 12.2251H11.0542ZM11.0542 13.5768H9.43211C9.47105 13.8258 9.53664 14.0567 9.62887 14.2694C9.72108 14.4822 9.83535 14.676 9.97168 14.8507L17.4535 23.9146C17.6505 24.1651 17.8699 24.3511 18.1116 24.4725C18.3534 24.5939 18.6071 24.6547 18.8729 24.6547H20.9727L13.1764 14.7064C12.8912 14.3459 12.5643 14.0675 12.1957 13.8712C11.827 13.675 11.4466 13.5768 11.0542 13.5768ZM18.8729 26.0064C18.4834 26.0064 18.1119 25.9125 17.7585 25.7246C17.4051 25.5367 17.08 25.2671 16.7834 24.9158L9.5232 16.1292C8.92406 15.3945 8.58783 14.4979 8.51451 13.4394C8.4412 12.3809 8.64568 11.4163 9.12796 10.5457L12.5768 4.4099C12.7669 4.06776 13.0198 3.84132 13.3354 3.73058C13.651 3.61984 13.9537 3.6691 14.2436 3.87835L14.8776 4.29534C15.1159 4.46031 15.2978 4.6837 15.4232 4.96551C15.5486 5.24732 15.6114 5.55929 15.6114 5.90142V9.17098L17.8229 8.41029C18.1609 8.28962 18.4839 8.34499 18.7921 8.5764C19.1003 8.80782 19.3116 9.1427 19.4262 9.58106L20.9126 15.545L24.7875 20.7116C25.0395 21.0476 25.2114 21.4096 25.303 21.7976C25.3947 22.1856 25.4405 22.5957 25.4405 23.0279C25.4405 23.8527 25.2243 24.5554 24.7918 25.1358C24.3594 25.7162 23.831 26.0064 23.2066 26.0064H18.8729Z" fill="#212120"/>
</g>
</svg>
