<svg width="33" height="32" viewBox="0 0 33 32" fill="none" xmlns="http://www.w3.org/2000/svg">
<g id="timer_FILL0_wght300_GRAD0_opsz48 1">
<path id="Vector" d="M13.0459 4.10441V2.66675H20.1614V4.10441H13.0459ZM15.8848 18.2769H17.3225V11.3929H15.8848V18.2769ZM16.6037 28.3067C15.1221 28.3067 13.7282 28.0221 12.4221 27.4527C11.116 26.8833 9.97396 26.1116 8.99598 25.1377C8.01802 24.1638 7.24638 23.0218 6.68104 21.7116C6.11569 20.4014 5.83301 19.0075 5.83301 17.53C5.83301 16.0525 6.11569 14.6607 6.68104 13.3546C7.24638 12.0484 8.01802 10.9064 8.99598 9.92844C9.97396 8.95046 11.116 8.17881 12.4221 7.61347C13.7282 7.04814 15.1221 6.76547 16.6037 6.76547C17.9537 6.76547 19.2314 6.99899 20.4368 7.46604C21.6421 7.93311 22.7184 8.58496 23.6655 9.42158L25.1227 7.95221L26.1364 8.96589L24.667 10.4353C25.4435 11.28 26.0889 12.2901 26.603 13.4654C27.1172 14.6408 27.3743 15.9977 27.3743 17.5361C27.3743 19.0096 27.0916 20.4014 26.5263 21.7116C25.961 23.0218 25.1893 24.1638 24.2113 25.1377C23.2334 26.1116 22.0913 26.8833 20.7852 27.4527C19.4791 28.0221 18.0852 28.3067 16.6037 28.3067ZM16.602 26.8691C19.1942 26.8691 21.3981 25.962 23.2135 24.1477C25.0289 22.3334 25.9366 20.1301 25.9366 17.5378C25.9366 14.9456 25.0295 12.7417 23.2152 10.9263C21.401 9.11087 19.1977 8.20317 16.6054 8.20317C14.0131 8.20317 11.8093 9.1103 9.99382 10.9246C8.17841 12.7388 7.2707 14.9421 7.2707 17.5344C7.2707 20.1267 8.17784 22.3305 9.99211 24.1459C11.8064 25.9614 14.0097 26.8691 16.602 26.8691Z" fill="#212120"/>
</g>
</svg>
