<svg width="24" height="24" viewBox="0 0 24 24" fill="none" xmlns="http://www.w3.org/2000/svg">
<g id="Icon_Training">
<path id="Shape" fill-rule="evenodd" clip-rule="evenodd" d="M6 14.6479L6 9.0625C6 7.40565 7.34315 6.0625 9 6.0625C10.6569 6.0625 12 7.40565 12 9.0625L12 11.5625L12 13.8125C12 15.0551 13.0074 16.0625 14.25 16.0625C15.4926 16.0625 16.5 15.0551 16.5 13.8125L16.5 7.26961L15.3536 8.41605C15.1583 8.61132 14.8417 8.61132 14.6464 8.41605C14.4512 8.22079 14.4512 7.90421 14.6464 7.70895L16.6464 5.70895C16.8417 5.51368 17.1583 5.51368 17.3536 5.70895L19.3536 7.70895C19.5488 7.90421 19.5488 8.22079 19.3536 8.41605C19.1583 8.61132 18.8417 8.61132 18.6464 8.41605L17.5 7.26961L17.5 13.8125C17.5 15.6074 16.0449 17.0625 14.25 17.0625C12.4551 17.0625 11 15.6074 11 13.8125L11 11.5625L11 9.0625C11 7.95793 10.1046 7.0625 9 7.0625C7.89543 7.0625 7 7.95793 7 9.0625L7 14.6479C7.5826 14.8538 8 15.4094 8 16.0625C8 16.8909 7.32843 17.5625 6.5 17.5625C5.67157 17.5625 5 16.8909 5 16.0625C5 15.4094 5.4174 14.8538 6 14.6479Z" fill="#212120"/>
</g>
</svg>
